<svg width="24" height="26" viewBox="0 0 24 26" fill="none" xmlns="http://www.w3.org/2000/svg">
<path d="M9 13L11 15L15.5 10.5M11.9932 7.13581C9.9938 4.7984 6.65975 4.16964 4.15469 6.31001C1.64964 8.45038 1.29697 12.029 3.2642 14.5604C4.75009 16.4724 8.97129 20.311 10.948 22.0749C11.3114 22.3991 11.4931 22.5613 11.7058 22.6251C11.8905 22.6805 12.0958 22.6805 12.2805 22.6251C12.4932 22.5613 12.6749 22.3991 13.0383 22.0749C15.015 20.311 19.2362 16.4724 20.7221 14.5604C22.6893 12.029 22.3797 8.42787 19.8316 6.31001C17.2835 4.19216 13.9925 4.7984 11.9932 7.13581Z" stroke="#15B79E" stroke-width="2" stroke-linecap="round" stroke-linejoin="round"/>
</svg>
