<svg width="129" height="20" viewBox="0 0 129 20" fill="none" xmlns="http://www.w3.org/2000/svg">
<g clip-path="url(#clip0_826_1112)">
<path d="M26.6965 14.7941H17.6344C17.703 15.9144 18.0867 16.7907 18.7822 17.4195C19.4777 18.0484 20.3239 18.3646 21.3175 18.3646C22.1329 18.3646 22.8113 18.1756 23.3561 17.7941C23.9008 17.4127 24.2845 16.9041 24.5038 16.2683H26.5321C26.2271 17.3611 25.6207 18.2512 24.7128 18.935C23.8049 19.6189 22.6708 19.9625 21.3209 19.9625C20.2451 19.9625 19.2824 19.722 18.4362 19.2374C17.5865 18.7529 16.9218 18.0656 16.4387 17.1721C15.9556 16.2787 15.7158 15.2443 15.7158 14.069C15.7158 12.8938 15.9488 11.8628 16.4182 10.9762C16.8876 10.0896 17.5454 9.40924 18.395 8.93157C19.2447 8.45391 20.2177 8.2168 21.3209 8.2168C22.4241 8.2168 23.3492 8.45391 24.1749 8.92126C25.0006 9.39205 25.6413 10.0381 26.0901 10.8628C26.5389 11.6876 26.7616 12.6154 26.7616 13.6532C26.7616 14.014 26.7411 14.3921 26.6999 14.7941H26.6965ZM24.3393 11.4024C24.0207 10.8835 23.5925 10.4883 23.0477 10.2202C22.5029 9.95219 21.9 9.81473 21.2387 9.81473C20.2863 9.81473 19.4777 10.1206 18.8062 10.7288C18.1347 11.3371 17.7544 12.1824 17.6584 13.2615H24.8156C24.8156 12.5433 24.658 11.9213 24.3393 11.4058V11.4024Z" fill="white"/>
<path d="M30.7286 4.41602V19.7734H28.8442V4.41602H30.7286Z" fill="white"/>
<path d="M35.0318 4.41602V19.7734H33.1475V4.41602H35.0318Z" fill="white"/>
<path d="M39.904 19.2335C39.0406 18.749 38.3657 18.0617 37.8758 17.1682C37.3858 16.2747 37.1426 15.2404 37.1426 14.0651C37.1426 12.8899 37.3927 11.8761 37.8963 10.9827C38.4 10.0892 39.0852 9.40533 39.9554 8.92767C40.8256 8.45 41.7952 8.21289 42.871 8.21289C43.9468 8.21289 44.9199 8.45 45.7901 8.92767C46.6603 9.40533 47.3455 10.0857 47.8492 10.9723C48.3528 11.8589 48.6029 12.8899 48.6029 14.0651C48.6029 15.2404 48.346 16.2747 47.8286 17.1682C47.3113 18.0617 46.6124 18.749 45.7284 19.2335C44.8445 19.718 43.868 19.9586 42.7922 19.9586C41.7164 19.9586 40.7674 19.718 39.9075 19.2335H39.904ZM44.6937 17.8211C45.2864 17.5016 45.7661 17.0273 46.1327 16.3881C46.4993 15.7524 46.6809 14.9758 46.6809 14.0651C46.6809 13.1545 46.5027 12.3778 46.143 11.7421C45.7832 11.1064 45.3139 10.6321 44.7348 10.3194C44.1558 10.0067 43.5289 9.85207 42.8539 9.85207C42.179 9.85207 41.5314 10.0067 40.9593 10.3194C40.3871 10.6321 39.928 11.1064 39.582 11.7421C39.2359 12.3778 39.0646 13.1545 39.0646 14.0651C39.0646 14.9758 39.2325 15.773 39.5717 16.4088C39.9109 17.0445 40.3597 17.5187 40.9284 17.8314C41.4972 18.1442 42.1139 18.2988 42.7922 18.2988C43.4706 18.2988 44.101 18.1407 44.6972 17.8211H44.6937Z" fill="white"/>
<path d="M66.2919 8.74662C66.9806 9.11432 67.5253 9.66415 67.9262 10.3961C68.327 11.1315 68.5258 12.0215 68.5258 13.0731V19.7776H66.6654V13.3446C66.6654 12.2105 66.3844 11.3411 65.826 10.7398C65.2675 10.1384 64.5104 9.83597 63.5613 9.83597C62.6123 9.83597 61.8037 10.1521 61.2247 10.781C60.6457 11.4099 60.3545 12.3205 60.3545 13.5095V19.7776H58.4907V13.3446C58.4907 12.2105 58.2097 11.3411 57.6513 10.7398C57.0928 10.1384 56.3356 9.83597 55.3866 9.83597C54.4376 9.83597 53.629 10.1521 53.05 10.781C52.471 11.4099 52.1798 12.3205 52.1798 13.5095V19.7776H50.2954V8.40298H52.1798V10.0422C52.5532 9.44765 53.0534 8.99061 53.6804 8.67102C54.3074 8.35143 54.9995 8.19336 55.7601 8.19336C56.7125 8.19336 57.5519 8.40642 58.2851 8.83597C59.0149 9.26552 59.5596 9.89439 59.9194 10.726C60.238 9.92532 60.7622 9.29989 61.4919 8.85659C62.2217 8.41329 63.0371 8.19336 63.9348 8.19336C64.8324 8.19336 65.6033 8.37549 66.2919 8.74319V8.74662Z" fill="white"/>
<path d="M70.427 10.9866C70.8963 10.1068 71.5405 9.42642 72.3627 8.94188C73.185 8.45735 74.0963 8.2168 75.1036 8.2168C76.1109 8.2168 76.9606 8.42986 77.6903 8.85941C78.4201 9.28896 78.9648 9.82848 79.3246 10.478V8.40236H81.2295V19.7735H79.3246V17.6567C78.9511 18.3199 78.3961 18.8697 77.6595 19.3061C76.9229 19.7426 76.0629 19.9591 75.083 19.9591C74.1032 19.9591 73.1644 19.7116 72.3524 19.2134C71.5404 18.7151 70.8963 18.0175 70.427 17.1171C69.9576 16.2168 69.7246 15.1927 69.7246 14.045C69.7246 12.8972 69.9576 11.8628 70.427 10.9831V10.9866ZM78.8072 11.8285C78.4612 11.1927 77.9952 10.7048 77.4094 10.3646C76.8235 10.0244 76.1794 9.85597 75.4736 9.85597C74.7678 9.85597 74.1306 10.0209 73.5482 10.3543C72.9657 10.6876 72.5066 11.1721 72.1606 11.8079C71.8145 12.4436 71.6432 13.1927 71.6432 14.0484C71.6432 14.9041 71.8145 15.6773 72.1606 16.3199C72.5066 16.9625 72.9691 17.4539 73.5482 17.7941C74.1272 18.1343 74.7678 18.3027 75.4736 18.3027C76.1794 18.3027 76.8235 18.1343 77.4094 17.7941C77.9952 17.4539 78.4612 16.9625 78.8072 16.3199C79.1533 15.6773 79.3246 14.9247 79.3246 14.069C79.3246 13.2134 79.1533 12.4642 78.8072 11.8285Z" fill="white"/>
<path d="M116.142 8.40234H114.257V19.7735H116.142V8.40234Z" fill="white"/>
<path d="M128.938 14.7941H119.876C119.945 15.9144 120.328 16.7907 121.024 17.4195C121.719 18.0484 122.566 18.3646 123.559 18.3646C124.375 18.3646 125.053 18.1756 125.598 17.7941C126.142 17.4127 126.526 16.9041 126.745 16.2683H128.774C128.469 17.3611 127.862 18.2512 126.954 18.935C126.047 19.6189 124.913 19.9625 123.563 19.9625C122.487 19.9625 121.524 19.722 120.678 19.2374C119.828 18.7529 119.164 18.0656 118.68 17.1721C118.197 16.2787 117.958 15.2443 117.958 14.069C117.958 12.8938 118.19 11.8628 118.66 10.9762C119.129 10.0896 119.787 9.40924 120.637 8.93157C121.486 8.45391 122.459 8.2168 123.563 8.2168C124.666 8.2168 125.591 8.45391 126.417 8.92126C127.242 9.39205 127.883 10.0381 128.332 10.8628C128.781 11.6876 129.003 12.6154 129.003 13.6532C129.003 14.014 128.983 14.3921 128.942 14.7941H128.938ZM126.581 11.4024C126.262 10.8835 125.834 10.4883 125.289 10.2202C124.745 9.95219 124.142 9.81473 123.48 9.81473C122.528 9.81473 121.719 10.1206 121.048 10.7288C120.376 11.3371 119.996 12.1824 119.9 13.2615H127.057C127.057 12.5433 126.9 11.9213 126.581 11.4058V11.4024Z" fill="white"/>
<path d="M5.33788 6.86133C5.70448 6.73418 6.05737 6.56923 6.38285 6.36305C7.30447 5.77198 7.89376 4.92319 8.13359 3.83727C8.555 1.92319 8.03081 0.967859 7.51689 0.503942C6.97899 0.0125331 6.20469 -0.131797 5.45095 0.119062C4.51219 0.42834 3.77558 1.28057 3.57001 2.28745C3.3987 3.13624 3.31648 4.15686 3.28222 5.09157C3.73789 5.06408 4.42996 4.9713 4.97129 4.67233C4.98157 3.95068 4.99527 3.20497 5.21797 2.62422C5.36529 2.23934 5.67022 1.82009 5.97514 1.72044C6.02653 1.70325 6.10533 1.68264 6.18071 1.68264C6.25608 1.68264 6.33146 1.69982 6.3897 1.7548C6.57471 1.92319 6.71176 2.47301 6.49248 3.47301C6.42054 3.80291 6.23553 4.62422 5.10833 5.13968C4.32033 5.53831 3.35759 5.58298 2.95331 5.58298C2.90877 5.58298 2.87108 5.58298 2.84025 5.58298C1.52119 5.61734 0.373446 5.36648 0.363168 5.36648L0 7.01253C0.0993573 7.03315 1.56916 7.35617 3.2411 7.25308C3.53575 7.22903 4.42996 7.13281 5.34131 6.86133H5.33788Z" fill="white"/>
<path d="M4.46777 10.9258L5.30273 10.1748C6.26177 9.31196 7.66241 8.70782 9.59082 9.13281C11.0728 9.46104 11.8382 10.7611 12.2266 12.1758C12.5983 13.53 12.5757 14.8316 12.5713 14.999C12.5416 15.534 12.5847 16.2264 12.7207 16.8428C12.7888 17.1513 12.8839 17.4588 13.0156 17.7236C13.1434 17.9804 13.3304 18.2468 13.6084 18.4072V18.4082C13.9356 18.5971 14.3185 18.5865 14.6631 18.5039C14.8947 18.4483 15.1392 18.35 15.3945 18.2227C15.5176 18.3916 15.6612 18.578 15.8252 18.7715C14.7258 19.3506 13.8968 19.3598 13.2734 18.999H13.2725C12.5619 18.588 12.2066 17.8602 12.0361 17.0498C11.8647 16.2346 11.8992 15.435 11.8955 14.9434V14.9365L11.8916 14.625C11.8825 14.1734 11.8429 13.3427 11.6465 12.5098C11.3943 11.4403 10.8198 10.1069 9.44824 9.80273H9.44727C8.40114 9.5717 7.52771 9.6876 6.81641 9.99609C6.11163 10.3019 5.59524 10.7838 5.2334 11.2422C4.73343 11.8761 4.47178 12.6597 4.47168 13.459V19.499H3.78906V8.17871C3.98165 8.15382 4.21279 8.11987 4.46777 8.07324V10.9258Z" fill="white" stroke="white"/>
<path d="M96.0032 17.0177C95.8182 17.0486 95.6469 17.0418 95.4893 16.9902C94.9103 16.8047 94.4306 16.0899 94.0777 15.4129C93.3857 14.3098 93.0842 13.0005 92.9505 12.059C92.93 11.9421 92.9094 11.8253 92.8957 11.7084C91.9707 4.49538 93.3788 3.11738 94.0263 2.85964C94.0914 2.83559 94.1908 2.81153 94.3107 2.81153C94.4854 2.81153 94.7013 2.85964 94.8897 3.02459C95.431 3.48851 95.5407 4.64659 95.1912 6.19985C94.6704 8.51257 94.0777 10.5366 93.4405 12.2273C93.557 12.9387 93.7694 13.8218 94.1634 14.6363C95.0645 12.7119 95.9484 10.0899 96.7432 6.55037C97.3736 3.75655 96.6439 2.43009 95.921 1.81153C95.085 1.09332 94.0606 1.12768 93.437 1.37511C91.5253 2.13456 90.7441 4.79092 91.0696 9.46102C90.1583 8.84933 89.0756 8.50569 87.945 8.50569C84.8478 8.50569 82.3296 11.0315 82.3296 14.138C82.3296 14.9387 82.4975 15.6981 82.799 16.3889C83.0045 16.7806 83.3369 17.3407 83.7891 17.9146C84.8169 19.0521 86.3005 19.7703 87.9484 19.7703C88.3561 19.7703 88.757 19.7222 89.1441 19.6363C89.9561 19.5572 90.8949 19.1621 91.8747 18.1621C91.8953 18.1414 91.9159 18.1208 91.9364 18.1002C91.957 18.0796 91.9741 18.059 91.9947 18.0383C92.142 17.8837 92.2859 17.7222 92.4161 17.5504C92.5223 17.4198 92.6285 17.2789 92.7313 17.1346C92.4401 16.6466 92.1865 16.1621 91.9707 15.7084C91.9022 15.8906 91.8165 16.0761 91.7137 16.2239C90.9942 17.4576 89.3737 18.1724 87.9518 18.1724C85.7317 18.1724 83.9262 16.3614 83.9262 14.1346C83.9262 11.9078 85.7317 10.0968 87.9518 10.0968C89.3154 10.0968 90.5865 10.7944 91.3266 11.9318C91.4499 12.87 91.6692 13.7669 91.9878 14.6053C92.2824 15.327 92.7004 16.2205 93.2418 17.0899C93.6872 17.7119 94.2627 18.2651 95.0096 18.5057C95.6469 18.7119 96.3184 18.6603 97.0139 18.3648C96.5274 17.8562 96.2088 17.3717 96.0101 17.0108L96.0032 17.0177Z" fill="white"/>
<path d="M113.288 18.2619C112.829 18.7086 112.328 19.0317 111.784 19.2207C110.389 19.7086 108.8 19.3169 107.299 18.1176C107.015 17.8873 106.754 17.6124 106.521 17.31C105.997 16.5471 105.675 15.9148 105.507 15.5403C105.507 15.5403 105.507 15.5368 105.511 15.5334C104.774 13.8117 104.517 12.0385 104.5 11.9217V11.8839C104.486 11.7842 104.479 11.6846 104.469 11.5849C103.712 10.6571 102.571 10.1004 101.355 10.1004C99.1345 10.1004 97.329 11.9114 97.329 14.1382C97.329 14.1382 97.329 14.1416 97.329 14.1451C97.329 14.7739 97.4729 15.365 97.723 15.8976C98.1787 16.8908 99.0043 17.6777 100.008 18.011C100.46 18.1829 100.95 18.2791 101.464 18.2791C101.464 18.2791 103.489 18.3719 105.209 15.9801C105.394 16.3581 105.678 16.8736 106.086 17.4818C104.154 19.9114 101.355 19.7739 101.355 19.7739C99.9054 19.7739 98.5829 19.2172 97.5859 18.31C97.0275 17.7842 96.6677 17.2653 96.4485 16.8805C96.4485 16.8805 96.4485 16.8805 96.4519 16.8805C95.9996 16.0695 95.7393 15.1348 95.7393 14.1416C95.7393 11.0351 98.2574 8.50933 101.355 8.50933C102.427 8.50933 103.458 8.82204 104.339 9.37531C104.226 5.29627 105 3.2516 106.847 2.51964C107.47 2.27222 108.495 2.23785 109.331 2.95606C110.054 3.57462 110.78 4.90108 110.153 7.6949C109.8 9.26534 109.012 12.2894 107.696 14.908C107.655 14.9904 107.614 15.0729 107.57 15.1519C107.179 14.3994 106.943 13.5471 106.819 12.9939C107.573 11.2275 108.179 9.21723 108.601 7.34438C108.95 5.79112 108.841 4.63304 108.299 4.16912C107.981 3.89421 107.594 3.94232 107.436 4.00417C106.552 4.35469 105.61 5.48527 106.021 11.0076L106.059 11.4887C106.066 11.5677 106.072 11.6434 106.079 11.7258C106.134 12.1141 106.261 12.7464 106.463 13.4509C106.631 14.1004 106.912 14.9664 107.354 15.6949C107.621 16.1726 107.933 16.5918 108.293 16.877C108.902 17.365 110.102 18.1279 111.256 17.7224C111.66 17.5815 112.935 16.8014 113.284 16.4028V18.2688L113.288 18.2619Z" fill="white"/>
<path d="M115.196 6.12374C116.233 6.12374 117.074 5.28062 117.074 4.24058C117.074 3.20054 116.233 2.35742 115.196 2.35742C114.159 2.35742 113.319 3.20054 113.319 4.24058C113.319 5.28062 114.159 6.12374 115.196 6.12374Z" fill="white"/>
</g>
<defs>
<clipPath id="clip0_826_1112">
<rect width="129" height="20" fill="white"/>
</clipPath>
</defs>
</svg>
