<svg width="1351" height="803" viewBox="0 0 1351 803" fill="none" xmlns="http://www.w3.org/2000/svg">
<g filter="url(#filter0_i_490_1702)">
<g clip-path="url(#clip0_490_1702)">
<rect width="1351" height="803" fill="white"/>
<g opacity="0.5">
<path opacity="0.6" d="M58 0V803" stroke="#EAECF5" stroke-width="3.5"/>
<path opacity="0.6" d="M108 0V803" stroke="#EAECF5" stroke-width="3.5"/>
<path opacity="0.6" d="M158 0V803" stroke="#EAECF5" stroke-width="3.5"/>
<path opacity="0.6" d="M208 0V803" stroke="#EAECF5" stroke-width="3.5"/>
<path opacity="0.6" d="M258 0V803" stroke="#EAECF5" stroke-width="3.5"/>
<path opacity="0.6" d="M308 0V803" stroke="#EAECF5" stroke-width="3.5"/>
<path opacity="0.6" d="M358 0V803" stroke="#EAECF5" stroke-width="3.5"/>
<path opacity="0.6" d="M408 0V803" stroke="#EAECF5" stroke-width="3.5"/>
<path opacity="0.6" d="M458 0V803" stroke="#EAECF5" stroke-width="3.5"/>
<path opacity="0.6" d="M508 0V803" stroke="#EAECF5" stroke-width="3.5"/>
<path opacity="0.6" d="M558 0V803" stroke="#EAECF5" stroke-width="3.5"/>
<path opacity="0.6" d="M608 0V803" stroke="#EAECF5" stroke-width="3.5"/>
<path opacity="0.6" d="M658 0V803" stroke="#EAECF5" stroke-width="3.5"/>
<path opacity="0.6" d="M708 0V803" stroke="#EAECF5" stroke-width="3.5"/>
<path opacity="0.6" d="M758 0V803" stroke="#EAECF5" stroke-width="3.5"/>
<path opacity="0.6" d="M808 0V803" stroke="#EAECF5" stroke-width="3.5"/>
<path opacity="0.6" d="M858 0V803" stroke="#EAECF5" stroke-width="3.5"/>
<path opacity="0.6" d="M908 0V803" stroke="#EAECF5" stroke-width="3.5"/>
<path opacity="0.6" d="M958 0V803" stroke="#EAECF5" stroke-width="3.5"/>
<path opacity="0.6" d="M1008 0V803" stroke="#EAECF5" stroke-width="3.5"/>
<path opacity="0.6" d="M1058 0V803" stroke="#EAECF5" stroke-width="3.5"/>
<path opacity="0.6" d="M1108 0V803" stroke="#EAECF5" stroke-width="3.5"/>
<path opacity="0.6" d="M1158 0V803" stroke="#EAECF5" stroke-width="3.5"/>
<path opacity="0.6" d="M1208 0V803" stroke="#EAECF5" stroke-width="3.5"/>
<path opacity="0.6" d="M1258 0V803" stroke="#EAECF5" stroke-width="3.5"/>
<path opacity="0.6" d="M1308 0V803" stroke="#EAECF5" stroke-width="3.5"/>
</g>
<g opacity="0.5">
<path d="M0 54H1351" stroke="#EAECF5" stroke-width="3"/>
<path d="M0 104H1351" stroke="#EAECF5" stroke-width="3"/>
<path d="M0 154H1351" stroke="#EAECF5" stroke-width="3"/>
<path d="M0 204H1351" stroke="#EAECF5" stroke-width="3"/>
<path d="M0 254H1351" stroke="#EAECF5" stroke-width="3"/>
<path d="M0 304H1351" stroke="#EAECF5" stroke-width="3"/>
<path d="M0 354H1351" stroke="#EAECF5" stroke-width="3"/>
<path d="M0 404H1351" stroke="#EAECF5" stroke-width="3"/>
<path d="M0 454H1351" stroke="#EAECF5" stroke-width="3"/>
<path d="M0 504H1351" stroke="#EAECF5" stroke-width="3"/>
<path d="M0 554H1351" stroke="#EAECF5" stroke-width="3"/>
<path d="M0 604H1351" stroke="#EAECF5" stroke-width="3"/>
<path d="M0 654H1351" stroke="#EAECF5" stroke-width="3"/>
<path d="M0 704H1351" stroke="#EAECF5" stroke-width="3"/>
<path d="M0 754H1351" stroke="#EAECF5" stroke-width="3"/>
</g>
</g>
</g>
<defs>
<filter id="filter0_i_490_1702" x="0" y="0" width="1351" height="803" filterUnits="userSpaceOnUse" color-interpolation-filters="sRGB">
<feFlood flood-opacity="0" result="BackgroundImageFix"/>
<feBlend mode="normal" in="SourceGraphic" in2="BackgroundImageFix" result="shape"/>
<feColorMatrix in="SourceAlpha" type="matrix" values="0 0 0 0 0 0 0 0 0 0 0 0 0 0 0 0 0 0 127 0" result="hardAlpha"/>
<feMorphology radius="22" operator="erode" in="SourceAlpha" result="effect1_innerShadow_490_1702"/>
<feOffset/>
<feGaussianBlur stdDeviation="100"/>
<feComposite in2="hardAlpha" operator="arithmetic" k2="-1" k3="1"/>
<feColorMatrix type="matrix" values="0 0 0 0 1 0 0 0 0 1 0 0 0 0 1 0 0 0 1 0"/>
<feBlend mode="normal" in2="shape" result="effect1_innerShadow_490_1702"/>
</filter>
<clipPath id="clip0_490_1702">
<rect width="1351" height="803" fill="white"/>
</clipPath>
</defs>
</svg>
