<svg width="1355" height="363" viewBox="0 0 1355 363" fill="none" xmlns="http://www.w3.org/2000/svg">
<path d="M0 20.5C0 9.17817 9.17816 0 20.5 0C31.8218 0 41 9.17816 41 20.5V342.5C41 353.822 31.8218 363 20.5 363C9.17816 363 0 353.822 0 342.5V20.5Z" fill="#99F6E0"/>
<path d="M50 20.5C50 9.17817 59.1782 0 70.5 0C81.8218 0 91 9.17816 91 20.5V342.5C91 353.822 81.8218 363 70.5 363C59.1782 363 50 353.822 50 342.5V20.5Z" fill="#99F6E0"/>
<path d="M100 20.5C100 9.17817 109.178 0 120.5 0C131.822 0 141 9.17816 141 20.5V342.5C141 353.822 131.822 363 120.5 363C109.178 363 100 353.822 100 342.5V20.5Z" fill="#99F6E0"/>
<path d="M150 20.5C150 9.17817 159.178 0 170.5 0C181.822 0 191 9.17816 191 20.5V342.5C191 353.822 181.822 363 170.5 363C159.178 363 150 353.822 150 342.5V20.5Z" fill="#99F6E0"/>
<path d="M200 20.5C200 9.17817 209.178 0 220.5 0C231.822 0 241 9.17816 241 20.5V342.5C241 353.822 231.822 363 220.5 363C209.178 363 200 353.822 200 342.5V20.5Z" fill="#99F6E0"/>
<path d="M250 20.5C250 9.17817 259.178 0 270.5 0C281.822 0 291 9.17816 291 20.5V342.5C291 353.822 281.822 363 270.5 363C259.178 363 250 353.822 250 342.5V20.5Z" fill="#99F6E0"/>
<path d="M300 20.5C300 9.17817 309.178 0 320.5 0C331.822 0 341 9.17816 341 20.5V342.5C341 353.822 331.822 363 320.5 363C309.178 363 300 353.822 300 342.5V20.5Z" fill="#F0FDF9"/>
<path d="M350 20.5C350 9.17817 359.178 0 370.5 0C381.822 0 391 9.17816 391 20.5V342.5C391 353.822 381.822 363 370.5 363C359.178 363 350 353.822 350 342.5V20.5Z" fill="#F0FDF9"/>
<path d="M400 20.5C400 9.17817 409.178 0 420.5 0C431.822 0 441 9.17816 441 20.5V342.5C441 353.822 431.822 363 420.5 363C409.178 363 400 353.822 400 342.5V20.5Z" fill="#F0FDF9"/>
<path d="M450 20.5C450 9.17817 459.178 0 470.5 0C481.822 0 491 9.17816 491 20.5V342.5C491 353.822 481.822 363 470.5 363C459.178 363 450 353.822 450 342.5V20.5Z" fill="#F0FDF9"/>
<path d="M500 20.5C500 9.17817 509.178 0 520.5 0C531.822 0 541 9.17816 541 20.5V342.5C541 353.822 531.822 363 520.5 363C509.178 363 500 353.822 500 342.5V20.5Z" fill="#F0FDF9"/>
<path d="M550 20.5C550 9.17817 559.178 0 570.5 0C581.822 0 591 9.17816 591 20.5V342.5C591 353.822 581.822 363 570.5 363C559.178 363 550 353.822 550 342.5V20.5Z" fill="#F0FDF9"/>
<path d="M600 20.5C600 9.17817 609.178 0 620.5 0C631.822 0 641 9.17816 641 20.5V342.5C641 353.822 631.822 363 620.5 363C609.178 363 600 353.822 600 342.5V20.5Z" fill="#F0FDF9"/>
<path d="M650 20.5C650 9.17817 659.178 0 670.5 0C681.822 0 691 9.17816 691 20.5V342.5C691 353.822 681.822 363 670.5 363C659.178 363 650 353.822 650 342.5V20.5Z" fill="#F0FDF9"/>
<path d="M700 20.5C700 9.17817 709.178 0 720.5 0C731.822 0 741 9.17816 741 20.5V342.5C741 353.822 731.822 363 720.5 363C709.178 363 700 353.822 700 342.5V20.5Z" fill="#F0FDF9"/>
<path d="M750 20.5C750 9.17817 759.178 0 770.5 0C781.822 0 791 9.17816 791 20.5V342.5C791 353.822 781.822 363 770.5 363C759.178 363 750 353.822 750 342.5V20.5Z" fill="#F0FDF9"/>
<path d="M800 20.5C800 9.17817 809.178 0 820.5 0C831.822 0 841 9.17816 841 20.5V342.5C841 353.822 831.822 363 820.5 363C809.178 363 800 353.822 800 342.5V20.5Z" fill="#F0FDF9"/>
<path d="M850 20.5C850 9.17817 859.178 0 870.5 0C881.822 0 891 9.17816 891 20.5V342.5C891 353.822 881.822 363 870.5 363C859.178 363 850 353.822 850 342.5V20.5Z" fill="#F0FDF9"/>
<path d="M900 20.5C900 9.17817 909.178 0 920.5 0C931.822 0 941 9.17816 941 20.5V342.5C941 353.822 931.822 363 920.5 363C909.178 363 900 353.822 900 342.5V20.5Z" fill="#F0FDF9"/>
<path d="M950 20.5C950 9.17817 959.178 0 970.5 0C981.822 0 991 9.17816 991 20.5V342.5C991 353.822 981.822 363 970.5 363C959.178 363 950 353.822 950 342.5V20.5Z" fill="#F0FDF9"/>
<path d="M1000 20.5C1000 9.17817 1009.18 0 1020.5 0C1031.82 0 1041 9.17816 1041 20.5V342.5C1041 353.822 1031.82 363 1020.5 363C1009.18 363 1000 353.822 1000 342.5V20.5Z" fill="#F0FDF9"/>
<path d="M1050 20.5C1050 9.17817 1059.18 0 1070.5 0C1081.82 0 1091 9.17816 1091 20.5V342.5C1091 353.822 1081.82 363 1070.5 363C1059.18 363 1050 353.822 1050 342.5V20.5Z" fill="#F0FDF9"/>
<path d="M1100 20.5C1100 9.17817 1109.18 0 1120.5 0C1131.82 0 1141 9.17816 1141 20.5V342.5C1141 353.822 1131.82 363 1120.5 363C1109.18 363 1100 353.822 1100 342.5V20.5Z" fill="#F0FDF9"/>
<path d="M1150 20.5C1150 9.17817 1159.18 0 1170.5 0C1181.82 0 1191 9.17816 1191 20.5V342.5C1191 353.822 1181.82 363 1170.5 363C1159.18 363 1150 353.822 1150 342.5V20.5Z" fill="#F0FDF9"/>
<path d="M1200 20.5C1200 9.17817 1209.18 0 1220.5 0C1231.82 0 1241 9.17816 1241 20.5V342.5C1241 353.822 1231.82 363 1220.5 363C1209.18 363 1200 353.822 1200 342.5V20.5Z" fill="#F0FDF9"/>
<path d="M1250 20.5C1250 9.17817 1259.18 0 1270.5 0C1281.82 0 1291 9.17816 1291 20.5V342.5C1291 353.822 1281.82 363 1270.5 363C1259.18 363 1250 353.822 1250 342.5V20.5Z" fill="#F0FDF9"/>
<path d="M1300 20.5C1300 9.17817 1309.18 0 1320.5 0C1331.82 0 1341 9.17816 1341 20.5V342.5C1341 353.822 1331.82 363 1320.5 363C1309.18 363 1300 353.822 1300 342.5V20.5Z" fill="#F0FDF9"/>
<path d="M1350 20.5C1350 9.17817 1359.18 0 1370.5 0C1381.82 0 1391 9.17816 1391 20.5V342.5C1391 353.822 1381.82 363 1370.5 363C1359.18 363 1350 353.822 1350 342.5V20.5Z" fill="#F0FDF9"/>
</svg>
