<svg width="51" height="46" viewBox="0 0 51 46" fill="none" xmlns="http://www.w3.org/2000/svg">
<path d="M44.0335 13.0487C42.8412 13.0487 41.7462 12.7689 40.7485 12.2092C39.7508 11.6496 38.96 10.877 38.376 9.8915C37.792 8.89383 37.5 7.76842 37.5 6.51525C37.5 5.27425 37.792 4.161 38.376 3.1755C38.96 2.17783 39.7508 1.39917 40.7485 0.839499C41.7462 0.279833 42.8412 0 44.0335 0C45.238 0 46.333 0.279833 47.3185 0.839499C48.3162 1.39917 49.1009 2.17783 49.6728 3.1755C50.2568 4.161 50.5488 5.27425 50.5488 6.51525C50.5488 7.76842 50.2568 8.89383 49.6728 9.8915C49.1009 10.877 48.3162 11.6496 47.3185 12.2092C46.3208 12.7689 45.2258 13.0487 44.0335 13.0487ZM44.0335 10.7675C44.8 10.7675 45.4753 10.5972 46.0593 10.2565C46.6433 9.90367 47.0995 9.40483 47.428 8.76C47.7565 8.11517 47.9208 7.36692 47.9208 6.51525C47.9208 5.66358 47.7565 4.92142 47.428 4.28875C47.0995 3.64392 46.6433 3.15117 46.0593 2.8105C45.4753 2.46983 44.8 2.2995 44.0335 2.2995C43.267 2.2995 42.5857 2.46983 41.9895 2.8105C41.4055 3.15117 40.9493 3.64392 40.6208 4.28875C40.2923 4.92142 40.128 5.66358 40.128 6.51525C40.128 7.36692 40.2923 8.11517 40.6208 8.76C40.9493 9.40483 41.4055 9.90367 41.9895 10.2565C42.5857 10.5972 43.267 10.7675 44.0335 10.7675Z" fill="#F93A70"/>
<path d="M32.8216 10.8963H37.0191V12.9221H30.2666V0.183594H32.8216V10.8963Z" fill="#F93A70"/>
<path d="M24.805 10.8963H29.0025V12.9221H22.25V0.183594H24.805V10.8963Z" fill="#F93A70"/>
<path d="M15.305 2.24456V5.43831H19.5938V7.46406H15.305V10.8403H20.1413V12.9208H12.75V0.164062H20.1413V2.24456H15.305Z" fill="#F93A70"/>
<path d="M10.5667 0.181641V12.9201H8.01175V7.49989H2.555V12.9201H0V0.181641H2.555V5.41939H8.01175V0.181641H10.5667Z" fill="#F93A70"/>
<path d="M7.00684 21.5361C5.53287 23.1533 4.3944 24.7567 3.56641 26.1279L0.178711 22.4014L3.98633 18.2129L7.00684 21.5361Z" fill="#FFA385"/>
<path fill-rule="evenodd" clip-rule="evenodd" d="M39.0327 16.9219C41.2323 16.922 43.1955 17.3784 44.9214 18.292C46.6813 19.2058 48.0522 20.5607 49.0337 22.3545C50.0489 24.1482 50.5561 26.3143 50.5561 28.8525V45.3525H44.8198V29.7148C44.8197 27.2107 44.193 25.2984 42.9409 23.9785C41.6886 22.625 39.9789 21.9473 37.813 21.9473C35.6473 21.9474 33.9212 22.625 32.6352 23.9785C31.3832 25.2984 30.7564 27.2107 30.7563 29.7148V45.3525H25.02V29.7148C25.0199 27.2107 24.3932 25.2984 23.1411 23.9785C19.2221 21.4661 15.7784 22.6494 13.1538 24.9639C13.1426 24.9725 13.1304 24.9799 13.1196 24.9893C10.8158 26.9859 9.21979 29.9049 8.24462 32.6074C7.91714 33.5151 7.65366 34.4158 7.45653 35.2656C7.3469 35.6948 7.26761 36.1029 7.21141 36.4873C7.02049 37.6381 6.97306 38.6368 7.07469 39.3486C7.13153 39.7448 7.4988 40.0202 7.89501 39.9639C8.29153 39.9073 8.56685 39.5391 8.51024 39.1426C8.35391 38.0461 8.67171 35.6944 9.6079 33.0996C10.1947 31.4732 11.0047 29.8103 12.0376 28.3584C13.205 32.0219 13.7924 36.129 12.771 39.7041C12.3326 41.238 11.6986 42.5585 10.8257 43.5381C9.93612 44.5363 8.6823 45.2861 7.18114 45.2451C5.69611 45.2045 4.52059 44.4041 3.74266 43.4521C2.96896 42.5052 2.47723 41.2987 2.22899 40.0117C1.26431 29.7152 5.63104 24.8725 11.0571 20.0225C12.6163 18.6291 15.507 17.3177 17.5786 17.0332C18.1179 16.9592 18.6692 16.9219 19.2319 16.9219C21.4656 16.9219 23.4632 17.3961 25.2231 18.3438C26.9829 19.2914 28.337 20.6615 29.2847 22.4551C30.1308 20.7631 31.451 19.4257 33.2446 18.4443C35.0383 17.4291 36.9683 16.9219 39.0327 16.9219Z" fill="white"/>
</svg>
