<svg width="28" height="28" viewBox="0 0 28 28" fill="none" xmlns="http://www.w3.org/2000/svg">
<path d="M14 1.75C20.7655 1.75 26.25 7.23451 26.25 14C26.25 20.7655 20.7655 26.25 14 26.25C7.23451 26.25 1.75 20.7655 1.75 14C1.75 7.23451 7.23451 1.75 14 1.75ZM5.86523 7.58789L7.62891 9.67969V17.5L5.63281 20.043V20.3301H10.5547V20.043L8.57227 17.5V10.9375L12.8242 20.3301H13.4258L17.0625 10.9375V18.6484L15.5723 20.043V20.3301H22.0938V20.043L20.6445 18.6484V8.94141L22.0938 7.58789V7.25977H17.5957L14.3145 15.3125L10.6504 7.25977H5.86523V7.58789Z" fill="#BB4DE8"/>
</svg>
