<svg width="164" height="40" viewBox="0 0 164 40" fill="none" xmlns="http://www.w3.org/2000/svg">
<path fill-rule="evenodd" clip-rule="evenodd" d="M0 20C12.6995 20 19.9797 12.7124 19.9797 0C19.9797 12.7124 27.2599 20 39.9594 20C27.2599 20 19.9797 27.2876 19.9797 40C19.9797 27.2876 12.6995 20 0 20Z" fill="#0A0D12"/>
<path d="M44.9541 27.4995L50.4161 11.097H55.361L60.823 27.4995H57.1817L56.0803 24.1245H49.6968L48.5954 27.4995H44.9541ZM50.506 21.447H55.2711L53.8775 17.262L52.956 14.2695H52.8211L51.8995 17.262L50.506 21.447Z" fill="#0A0D12"/>
<path d="M66.9181 27.702C65.7194 27.702 64.6704 27.447 63.7713 26.937C62.8723 26.412 62.1755 25.6845 61.681 24.7545C61.1865 23.8095 60.9392 22.7145 60.9392 21.4695C60.9392 20.2095 61.1865 19.1145 61.681 18.1845C62.1905 17.2395 62.9022 16.512 63.8163 16.002C64.7304 15.477 65.8018 15.2145 67.0305 15.2145C68.0645 15.2145 68.986 15.4095 69.7952 15.7995C70.6044 16.1895 71.2413 16.7295 71.7058 17.4195C72.1853 18.1095 72.4475 18.912 72.4925 19.827H69.2558C69.1509 19.197 68.8886 18.7245 68.4691 18.4095C68.0495 18.0795 67.54 17.9145 66.9406 17.9145C66.0715 17.9145 65.4122 18.237 64.9626 18.882C64.5131 19.527 64.2883 20.3895 64.2883 21.4695C64.2883 22.6545 64.5281 23.5395 65.0076 24.1245C65.5021 24.7095 66.1389 25.002 66.9181 25.002C67.6224 25.002 68.1769 24.822 68.5815 24.462C69.001 24.102 69.2408 23.6295 69.3007 23.0445H72.515C72.47 23.9895 72.2003 24.8145 71.7058 25.5195C71.2263 26.2095 70.5744 26.7495 69.7503 27.1395C68.9261 27.5145 67.9821 27.702 66.9181 27.702Z" fill="#0A0D12"/>
<path d="M74.0938 27.4995V15.4395H77.2856L77.3979 17.622H77.5328C77.8325 16.827 78.3195 16.227 78.9938 15.822C79.6681 15.417 80.4099 15.2145 81.2191 15.2145C82.0582 15.2145 82.8224 15.417 83.5117 15.822C84.201 16.227 84.7105 16.9245 85.0402 17.9145H85.22C85.5047 17.0145 86.0067 16.3395 86.726 15.8895C87.4602 15.4395 88.2844 15.2145 89.1985 15.2145C89.9777 15.2145 90.6745 15.3795 91.2888 15.7095C91.9032 16.0395 92.3902 16.572 92.7498 17.307C93.1245 18.027 93.3118 18.9945 93.3118 20.2095V27.4995H90.0076V20.9295C90.0076 19.9095 89.8353 19.152 89.4907 18.657C89.161 18.162 88.6215 17.9145 87.8723 17.9145C87.0781 17.9145 86.4562 18.207 86.0067 18.792C85.5721 19.362 85.3549 20.0295 85.3549 20.7945V27.4995H82.0507V20.9295C82.0507 19.9095 81.8784 19.152 81.5337 18.657C81.2041 18.162 80.6646 17.9145 79.9154 17.9145C79.1062 17.9145 78.4843 18.207 78.0498 18.792C77.6152 19.362 77.3979 20.0295 77.3979 20.7945V27.4995H74.0938Z" fill="#0A0D12"/>
<path d="M100.855 27.702C99.5961 27.702 98.5172 27.447 97.6181 26.937C96.734 26.427 96.0522 25.7145 95.5727 24.7995C95.0931 23.8695 94.8534 22.7895 94.8534 21.5595C94.8534 20.2545 95.0931 19.1295 95.5727 18.1845C96.0672 17.2395 96.7565 16.512 97.6406 16.002C98.5247 15.477 99.5586 15.2145 100.742 15.2145C102.136 15.2145 103.282 15.522 104.181 16.137C105.081 16.737 105.725 17.5695 106.114 18.6345C106.504 19.6845 106.631 20.877 106.497 22.212H98.1126C98.0976 23.172 98.3448 23.9145 98.8543 24.4395C99.3638 24.9495 100.031 25.2045 100.855 25.2045C101.484 25.2045 102.016 25.0695 102.451 24.7995C102.9 24.5145 103.185 24.1395 103.305 23.6745H106.429C106.324 24.4845 106.017 25.1895 105.508 25.7895C105.013 26.3895 104.369 26.862 103.575 27.207C102.78 27.537 101.874 27.702 100.855 27.702ZM100.742 17.712C99.9932 17.712 99.3863 17.9295 98.9218 18.3645C98.4572 18.7845 98.195 19.362 98.1351 20.097H103.26C103.215 19.287 102.953 18.687 102.473 18.297C102.009 17.907 101.432 17.712 100.742 17.712Z" fill="#0A0D12"/>
<path d="M120.138 27.702C118.505 27.702 117.067 27.372 115.823 26.712C114.594 26.052 113.635 25.092 112.946 23.832C112.256 22.572 111.912 21.057 111.912 19.287C111.912 17.517 112.256 16.0095 112.946 14.7645C113.635 13.5045 114.594 12.5445 115.823 11.8845C117.067 11.2245 118.505 10.8945 120.138 10.8945C121.547 10.8945 122.798 11.142 123.892 11.637C124.986 12.117 125.87 12.7995 126.544 13.6845C127.219 14.5545 127.631 15.5745 127.781 16.7445H124.229C124.034 15.9045 123.57 15.222 122.836 14.697C122.116 14.157 121.217 13.887 120.138 13.887C118.73 13.887 117.606 14.337 116.767 15.237C115.943 16.137 115.531 17.487 115.531 19.287C115.531 21.102 115.943 22.4595 116.767 23.3595C117.606 24.2595 118.73 24.7095 120.138 24.7095C121.187 24.7095 122.086 24.447 122.836 23.922C123.585 23.397 124.049 22.6995 124.229 21.8295H127.781C127.646 22.9995 127.234 24.027 126.544 24.912C125.855 25.797 124.956 26.487 123.847 26.982C122.753 27.462 121.517 27.702 120.138 27.702Z" fill="#0A0D12"/>
<path d="M134.957 27.702C133.758 27.702 132.702 27.4545 131.788 26.9595C130.874 26.4645 130.162 25.752 129.652 24.822C129.158 23.892 128.911 22.7745 128.911 21.4695C128.911 20.2245 129.15 19.137 129.63 18.207C130.109 17.262 130.799 16.527 131.698 16.002C132.597 15.477 133.683 15.2145 134.957 15.2145C136.156 15.2145 137.205 15.462 138.104 15.957C139.018 16.452 139.722 17.172 140.217 18.117C140.726 19.047 140.981 20.1645 140.981 21.4695C140.981 22.7145 140.741 23.8095 140.262 24.7545C139.782 25.6845 139.093 26.412 138.194 26.937C137.31 27.447 136.231 27.702 134.957 27.702ZM134.935 25.0245C135.744 25.0245 136.396 24.732 136.89 24.147C137.385 23.562 137.632 22.6695 137.632 21.4695C137.632 20.2695 137.392 19.377 136.913 18.792C136.433 18.207 135.781 17.9145 134.957 17.9145C134.133 17.9145 133.474 18.207 132.979 18.792C132.485 19.377 132.237 20.2695 132.237 21.4695C132.237 22.6545 132.477 23.547 132.957 24.147C133.451 24.732 134.11 25.0245 134.935 25.0245Z" fill="#0A0D12"/>
<path d="M142.636 27.4995V15.4395H145.625L145.76 17.3745H145.873C146.142 16.5945 146.569 16.0545 147.154 15.7545C147.753 15.4395 148.435 15.282 149.199 15.282H149.874V18.387H149.132C148.023 18.387 147.221 18.6345 146.727 19.1295C146.232 19.6095 145.97 20.2995 145.94 21.1995V27.4995H142.636Z" fill="#0A0D12"/>
<path d="M151.164 31.257V15.4395H154.356L154.468 17.532H154.648C154.933 16.827 155.405 16.2645 156.064 15.8445C156.738 15.4245 157.54 15.2145 158.469 15.2145C159.908 15.2145 161.069 15.7395 161.953 16.7895C162.852 17.8245 163.302 19.3845 163.302 21.4695C163.302 23.5395 162.852 25.0995 161.953 26.1495C161.069 27.1995 159.908 27.7245 158.469 27.7245C157.54 27.7245 156.738 27.5145 156.064 27.0945C155.405 26.6595 154.933 26.097 154.648 25.407H154.468V31.257H151.164ZM157.233 25.047C158.042 25.047 158.686 24.762 159.166 24.192C159.66 23.607 159.908 22.6995 159.908 21.4695C159.908 20.2395 159.66 19.3395 159.166 18.7695C158.686 18.1845 158.042 17.892 157.233 17.892C156.619 17.892 156.109 18.0345 155.704 18.3195C155.3 18.6045 155 18.9795 154.805 19.4445C154.611 19.8945 154.513 20.3745 154.513 20.8845V22.0545C154.513 22.5645 154.611 23.052 154.805 23.517C155 23.967 155.3 24.3345 155.704 24.6195C156.109 24.9045 156.619 25.047 157.233 25.047Z" fill="#0A0D12"/>
</svg>
