<svg width="127" height="40" viewBox="0 0 127 40" fill="none" xmlns="http://www.w3.org/2000/svg">
<path fill-rule="evenodd" clip-rule="evenodd" d="M28.8981 6.99945L20.8046 4.83648C20.2458 4.68716 19.7929 5.03381 19.7929 5.61074V13.9678C19.7929 14.5448 20.2458 15.1335 20.8046 15.2828L28.8981 17.4458C29.4569 17.5951 29.9098 17.2485 29.9098 16.6715V8.31446C29.9098 7.73752 29.4569 7.14877 28.8981 6.99945ZM20.8046 1.70258C18.5696 1.10529 16.7578 2.49189 16.7578 4.79963V13.1567C16.7578 15.4644 18.5696 17.8194 20.8046 18.4167L28.8981 20.5797C31.1331 21.177 32.9449 19.7904 32.9449 17.4826V9.12557C32.9449 6.81783 31.1331 4.46284 28.8981 3.86555L20.8046 1.70258Z" fill="#8098F9"/>
<path fill-rule="evenodd" clip-rule="evenodd" d="M22.5436 13.8097L12.4267 11.106C11.8679 10.9567 11.415 11.3033 11.415 11.8803V22.3266C11.415 22.9036 11.8679 23.4923 12.4267 23.6416L22.5436 26.3453C23.1024 26.4947 23.5553 26.148 23.5553 25.5711V15.1247C23.5553 14.5478 23.1024 13.959 22.5436 13.8097ZM12.4267 7.97211C10.1917 7.37482 8.37988 8.76142 8.37988 11.0692V21.5155C8.37988 23.8232 10.1917 26.1782 12.4267 26.7755L22.5436 29.4792C24.7786 30.0765 26.5904 28.6899 26.5904 26.3822V15.9358C26.5904 13.6281 24.7786 11.2731 22.5436 10.6758L12.4267 7.97211Z" fill="#6172F3"/>
<path fill-rule="evenodd" clip-rule="evenodd" d="M16.1871 20.618L4.04678 17.3736C3.48803 17.2243 3.03508 17.5709 3.03508 18.1479V30.6835C3.03508 31.2604 3.48804 31.8491 4.04678 31.9985L16.1871 35.2429C16.7459 35.3922 17.1988 35.0456 17.1988 34.4687V21.9331C17.1988 21.3561 16.7459 20.7674 16.1871 20.618ZM4.04678 14.2397C1.8118 13.6424 0 15.029 0 17.3367V29.8724C0 32.1801 1.8118 34.5351 4.04678 35.1324L16.1871 38.3768C18.4221 38.9741 20.2339 37.5875 20.2339 35.2798V22.7442C20.2339 20.4364 18.4221 18.0814 16.1871 17.4841L4.04678 14.2397Z" fill="#444CE7"/>
<path d="M44.8177 27.1727C45.7691 27.6082 46.8608 27.826 48.0929 27.826C49.3251 27.826 50.4012 27.616 51.3214 27.196C52.2572 26.7605 52.9824 26.1538 53.4971 25.376C54.0118 24.5827 54.2692 23.6571 54.2692 22.5993V22.3193C54.2692 21.3393 54.043 20.546 53.5907 19.9394C53.1384 19.3171 52.5613 18.8582 51.8595 18.5627C51.1733 18.2671 50.4636 18.1193 49.7306 18.1193H48.865V17.746L53.8013 15.1327V11.166H42.1975V13.826H50.4792V14.1993L45.192 16.9993V20.266H48.4673C48.9975 20.266 49.4732 20.3438 49.8943 20.4993C50.3154 20.6393 50.6508 20.8649 50.9003 21.176C51.1499 21.4871 51.2746 21.8916 51.2746 22.3893V22.6227C51.2746 23.3538 50.9939 23.9605 50.4324 24.4427C49.8865 24.9249 49.1067 25.166 48.0929 25.166C47.0948 25.166 46.2916 24.9093 45.6833 24.396C45.075 23.8671 44.7709 23.1671 44.7709 22.296V21.9693H41.7764V22.3893C41.7764 23.5093 42.0415 24.4816 42.5718 25.306C43.1177 26.1149 43.8663 26.7371 44.8177 27.1727Z" fill="#0A0D12"/>
<path fill-rule="evenodd" clip-rule="evenodd" d="M65.0401 11.796C64.2602 11.376 63.3556 11.166 62.3263 11.166H55.5886V27.4993H58.6767V21.526H62.3263C63.3244 21.526 64.2134 21.3238 64.9933 20.9193C65.7887 20.4993 66.4125 19.916 66.8648 19.1693C67.3327 18.4071 67.5667 17.5205 67.5667 16.5093V16.1827C67.5667 15.156 67.3405 14.2693 66.8882 13.5227C66.4515 12.776 65.8355 12.2005 65.0401 11.796ZM63.8001 18.1193C63.3478 18.5238 62.7552 18.726 62.0221 18.726H58.6767V13.966H62.0221C62.7552 13.966 63.3478 14.1682 63.8001 14.5727C64.2524 14.9771 64.4786 15.5294 64.4786 16.2293V16.4627C64.4786 17.1627 64.2524 17.7149 63.8001 18.1193Z" fill="#0A0D12"/>
<path fill-rule="evenodd" clip-rule="evenodd" d="M73.8785 27.826C72.7244 27.826 71.6872 27.5927 70.767 27.126C69.8468 26.6593 69.1216 25.9827 68.5913 25.096C68.061 24.2093 67.7959 23.1438 67.7959 21.8993V21.526C67.7959 20.2816 68.061 19.216 68.5913 18.3293C69.1216 17.4427 69.8468 16.766 70.767 16.2993C71.6872 15.8327 72.7244 15.5993 73.8785 15.5993C75.0327 15.5993 76.0698 15.8327 76.99 16.2993C77.9102 16.766 78.6354 17.4427 79.1657 18.3293C79.696 19.216 79.9611 20.2816 79.9611 21.526V21.8993C79.9611 23.1438 79.696 24.2093 79.1657 25.096C78.6354 25.9827 77.9102 26.6593 76.99 27.126C76.0698 27.5927 75.0327 27.826 73.8785 27.826ZM73.8785 25.2127C74.7831 25.2127 75.5317 24.9249 76.1244 24.3493C76.7171 23.7582 77.0134 22.9182 77.0134 21.8293V21.596C77.0134 20.5071 76.7171 19.6749 76.1244 19.0993C75.5473 18.5082 74.7987 18.2127 73.8785 18.2127C72.9739 18.2127 72.2253 18.5082 71.6326 19.0993C71.04 19.6749 70.7436 20.5071 70.7436 21.596V21.8293C70.7436 22.9182 71.04 23.7582 71.6326 24.3493C72.2253 24.9249 72.9739 25.2127 73.8785 25.2127Z" fill="#0A0D12"/>
<path d="M85.6766 16.206C85.2867 16.4238 85.0059 16.766 84.8344 17.2327H84.4133V15.926H81.5123V27.4993H84.4601V20.9193C84.4601 20.0949 84.7018 19.4882 85.1853 19.0993C85.6688 18.6949 86.2849 18.4927 87.0335 18.4927H88.484V18.491H91.4898V24.886C91.4898 25.6793 91.7238 26.3171 92.1917 26.7994C92.6752 27.266 93.299 27.4993 94.0632 27.4993H97.3385V25.0727H95.0926C94.6559 25.0727 94.4376 24.8393 94.4376 24.3727V18.491H97.6192V15.8827H94.4376V12.3327H91.4898V15.8827H88.484V15.8793H87.0803C86.55 15.8793 86.0821 15.9882 85.6766 16.206Z" fill="#0A0D12"/>
<path fill-rule="evenodd" clip-rule="evenodd" d="M100.498 27.406C101.153 27.686 101.894 27.826 102.721 27.826C103.532 27.826 104.171 27.7093 104.639 27.476C105.107 27.2427 105.45 26.9782 105.668 26.6827C105.887 26.3716 106.027 26.1227 106.089 25.936H106.534V25.9593C106.534 26.426 106.721 26.7993 107.095 27.0793C107.47 27.3594 107.945 27.4993 108.522 27.4993H110.488V25.0727H109.552C109.115 25.0727 108.897 24.8393 108.897 24.3727V20.056C108.897 18.6093 108.452 17.5049 107.563 16.7427C106.674 15.9805 105.466 15.5993 103.937 15.5993C102.939 15.5993 102.089 15.7549 101.387 16.066C100.701 16.3616 100.147 16.7582 99.726 17.256C99.3205 17.7382 99.0242 18.2749 98.837 18.866L101.551 19.776C101.66 19.2471 101.894 18.8193 102.253 18.4927C102.611 18.1505 103.157 17.9793 103.89 17.9793C104.639 17.9793 105.185 18.1582 105.528 18.516C105.871 18.8582 106.043 19.3016 106.043 19.846V20.4993H102.861C101.988 20.4993 101.208 20.6393 100.521 20.9193C99.8508 21.1838 99.3205 21.5882 98.9306 22.1327C98.5563 22.6616 98.3691 23.3227 98.3691 24.116C98.3691 24.9093 98.5563 25.586 98.9306 26.146C99.3205 26.6905 99.843 27.1105 100.498 27.406ZM105.247 24.7694C104.733 25.2205 104.062 25.446 103.235 25.446C102.611 25.446 102.136 25.3138 101.808 25.0493C101.481 24.7849 101.317 24.4427 101.317 24.0227C101.317 23.6027 101.473 23.276 101.785 23.0427C102.097 22.8094 102.526 22.6927 103.071 22.6927H106.043V22.926C106.043 23.6882 105.777 24.3027 105.247 24.7694Z" fill="#0A0D12"/>
<path d="M117.617 26.846C118.584 27.4993 119.824 27.826 121.337 27.826C122.819 27.826 123.996 27.4993 124.87 26.846C125.759 26.1771 126.203 25.236 126.203 24.0227C126.203 23.2138 125.992 22.576 125.571 22.1093C125.166 21.6271 124.604 21.2616 123.887 21.0127C123.185 20.7482 122.397 20.5382 121.524 20.3827L120.869 20.266C120.339 20.1727 119.918 20.0405 119.606 19.8693C119.294 19.6827 119.138 19.4027 119.138 19.0293C119.138 18.6871 119.286 18.4227 119.582 18.236C119.879 18.0338 120.308 17.9327 120.869 17.9327C121.431 17.9327 121.898 18.0571 122.273 18.306C122.663 18.5549 122.92 18.9749 123.045 19.566L125.782 18.726C125.517 17.7927 124.955 17.0382 124.098 16.4627C123.24 15.8871 122.164 15.5993 120.869 15.5993C119.497 15.5993 118.389 15.9105 117.547 16.5327C116.705 17.1393 116.284 18.0182 116.284 19.1693C116.284 19.9316 116.486 20.5538 116.892 21.036C117.297 21.5182 117.836 21.8993 118.506 22.1793C119.177 22.4438 119.918 22.6538 120.729 22.8094L121.384 22.926C122.07 23.0505 122.569 23.2138 122.881 23.416C123.193 23.6027 123.349 23.8749 123.349 24.2327C123.349 24.5905 123.185 24.8938 122.858 25.1427C122.53 25.376 122.023 25.4927 121.337 25.4927C120.885 25.4927 120.464 25.4305 120.074 25.306C119.699 25.166 119.38 24.9405 119.114 24.6294C118.865 24.3182 118.686 23.8905 118.576 23.346L115.863 24.046C116.065 25.2593 116.65 26.1927 117.617 26.846Z" fill="#0A0D12"/>
<path d="M111.473 27.4993V11.166H114.421V27.4993H111.473Z" fill="#0A0D12"/>
</svg>
