<svg width="157" height="40" viewBox="0 0 157 40" fill="none" xmlns="http://www.w3.org/2000/svg">
<path d="M20.8531 5.86082C18.244 3.25733 14.014 3.25733 11.4049 5.86082L1.95678 15.2889C-0.652259 17.8924 -0.652259 22.1135 1.95678 24.717L11.4049 34.1451C14.014 36.7486 18.244 36.7486 20.8531 34.1451L25.3612 29.6465C21.6083 28.2017 18.9459 24.5679 18.9459 20.3134C18.9459 15.8895 21.8247 12.1365 25.815 10.8182C25.7369 10.7363 25.6577 10.6552 25.5771 10.5749L20.8531 5.86082Z" fill="#875BF7"/>
<path d="M25.3613 29.6497C26.4801 30.0803 27.6958 30.3164 28.9668 30.3164C34.5014 30.3164 38.9881 25.8393 38.9881 20.3164C38.9881 14.7936 34.5014 10.3164 28.9668 10.3164C27.8657 10.3164 26.8062 10.4936 25.8151 10.821C30.7943 16.0444 30.715 24.3073 25.5774 29.434L25.3613 29.6497Z" fill="#EE46BC"/>
<path d="M58.13 27.5007L56.9125 24.0357H50.6216L49.3815 27.5007H45.9316L52.0196 11.3457H55.7625L61.8053 27.5007H58.13ZM53.8008 15.0807L51.5912 21.3132H55.9654L53.8008 15.0807Z" fill="#0A0D12"/>
<path d="M65.7618 27.5007H62.6051V11.3457H65.7618V27.5007Z" fill="#0A0D12"/>
<path d="M79.6884 21.4932C79.6884 25.0482 77.5915 27.7257 74.3446 27.7257C72.9241 27.7257 71.7065 27.1182 70.8046 25.9482V31.8432H67.6704V15.4857H70.5566V17.2407C71.481 15.9582 72.8113 15.2607 74.3446 15.2607C77.5915 15.2607 79.6884 17.9607 79.6884 21.4932ZM76.4641 21.4932C76.4641 19.2432 75.1789 18.0282 73.6456 18.0282C72.1124 18.0282 70.8271 19.2207 70.8271 21.4932C70.8271 23.7657 72.1124 24.9357 73.6456 24.9357C75.1789 24.9357 76.4641 23.7882 76.4641 21.4932Z" fill="#0A0D12"/>
<path d="M83.929 20.9532V27.5007H80.7949V11.3457H83.929V17.0607C84.7633 15.9582 85.8005 15.2607 87.3789 15.2607C89.7915 15.2607 91.46 16.8357 91.46 19.7382V27.5007H88.3484V20.7957C88.3484 19.0182 87.6494 18.0282 86.2289 18.0282C84.9888 18.0282 83.929 19.0182 83.929 20.9532Z" fill="#0A0D12"/>
<path d="M100.429 27.5007V26.0157C99.6398 27.1407 98.4448 27.7257 96.7988 27.7257C94.2959 27.7257 92.6274 26.2632 92.6274 24.0132C92.6274 21.6732 94.5214 20.4132 98.0389 20.4132C98.7153 20.4132 99.3016 20.4582 100.046 20.5482V19.8282C100.046 18.4782 99.279 17.6907 97.9712 17.6907C96.6184 17.6907 95.8067 18.4782 95.6939 19.8282H92.8754C93.0558 17.0607 95.0626 15.2607 97.9712 15.2607C101.128 15.2607 102.977 16.9932 102.977 19.9407V27.5007H100.429ZM95.5812 23.9232C95.5812 24.9357 96.3027 25.5657 97.4752 25.5657C99.0761 25.5657 100.046 24.6882 100.046 23.2932V22.4382C99.3016 22.3257 98.783 22.2807 98.2418 22.2807C96.4605 22.2807 95.5812 22.8432 95.5812 23.9232Z" fill="#0A0D12"/>
<path d="M116.212 27.5007L113.191 16.2057L110.169 27.5007H106.697L102.548 11.3457H105.885L108.501 22.3032L111.477 11.3457H114.972L117.858 22.3482L120.496 11.3457H123.856L119.684 27.5007H116.212Z" fill="#0A0D12"/>
<path d="M130.884 27.5007V26.0157C130.094 27.1407 128.899 27.7257 127.253 27.7257C124.751 27.7257 123.082 26.2632 123.082 24.0132C123.082 21.6732 124.976 20.4132 128.493 20.4132C129.17 20.4132 129.756 20.4582 130.5 20.5482V19.8282C130.5 18.4782 129.734 17.6907 128.426 17.6907C127.073 17.6907 126.261 18.4782 126.149 19.8282H123.33C123.51 17.0607 125.517 15.2607 128.426 15.2607C131.583 15.2607 133.431 16.9932 133.431 19.9407V27.5007H130.884ZM126.036 23.9232C126.036 24.9357 126.757 25.5657 127.93 25.5657C129.531 25.5657 130.5 24.6882 130.5 23.2932V22.4382C129.756 22.3257 129.238 22.2807 128.696 22.2807C126.915 22.2807 126.036 22.8432 126.036 23.9232Z" fill="#0A0D12"/>
<path d="M145.658 15.4857L141.238 27.5007H137.811L133.369 15.4857H136.751L139.615 23.9457L142.501 15.4857H145.658Z" fill="#0A0D12"/>
<path d="M150.944 27.7032C147.336 27.7032 144.923 25.2057 144.923 21.4482C144.923 17.8707 147.426 15.2607 150.898 15.2607C154.709 15.2607 157.234 18.3432 156.671 22.2582H148.125C148.328 24.2157 149.275 25.2957 150.876 25.2957C152.251 25.2957 153.176 24.6207 153.537 23.4282H156.648C155.972 26.1507 153.875 27.7032 150.944 27.7032ZM150.831 17.5557C149.365 17.5557 148.441 18.5007 148.17 20.2782H153.356C153.266 18.6132 152.319 17.5557 150.831 17.5557Z" fill="#0A0D12"/>
</svg>
