<svg width="157" height="40" viewBox="0 0 157 40" fill="none" xmlns="http://www.w3.org/2000/svg">
<path d="M0 13.2484L14.4854 13.2484L0.237326 27.4662L2.53919 29.7632L16.7872 15.5454V30H16.8794L20.0426 26.8436L20.0426 13.5404L16.4946 10L3.16133 10L4.43891e-08 13.1546L0 13.2484Z" fill="#0A0D12"/>
<path d="M39.4671 21.3041H42.2246V23.8608H39.4671V27.5008H36.4056V23.8608H28.3936V21.6291L36.6878 11.8141H39.4671V21.3041ZM32.3019 21.3041H36.4056V16.2991L32.3019 21.3041Z" fill="#0A0D12"/>
<path d="M49.9151 16.8408C50.9863 16.8408 51.9417 17.0502 52.7812 17.4691C53.6353 17.888 54.3011 18.5091 54.7788 19.3325C55.271 20.1558 55.517 21.1452 55.517 22.3008C55.517 24.0197 54.9742 25.363 53.8886 26.3308C52.8029 27.2841 51.2758 27.7608 49.3072 27.7608C47.9465 27.7608 46.803 27.5369 45.8766 27.0891C44.9646 26.6413 44.2698 26.0491 43.7921 25.3125C43.3289 24.5758 43.0611 23.7669 42.9888 22.8858H46.1154C46.5786 24.5613 47.6353 25.3991 49.2855 25.3991C50.2987 25.3991 51.0659 25.1175 51.587 24.5541C52.1226 23.9908 52.3904 23.2325 52.3904 22.2791C52.3904 21.3113 52.1226 20.5602 51.587 20.0258C51.0514 19.4769 50.2915 19.2025 49.3072 19.2025C48.0044 19.2025 47.0056 19.7441 46.3108 20.8275L43.4882 20.5458L44.5521 11.8141H54.6051V14.3708H47.0925L46.6148 17.9675C47.3965 17.2163 48.4966 16.8408 49.9151 16.8408Z" fill="#0A0D12"/>
<path d="M67.5686 11.8141C69.7544 11.8141 71.7303 12.3341 73.4962 13.3741C75.2767 14.3997 76.1669 16.4941 76.1669 19.6575C76.1669 22.8208 75.2767 24.9225 73.4962 25.9625C71.7303 26.988 69.7544 27.5008 67.5686 27.5008H62.2707V11.8141H67.5686ZM67.4601 24.7708C68.4589 24.7563 69.3491 24.6408 70.1307 24.4241C70.9269 24.193 71.6 23.7019 72.15 22.9508C72.7146 22.1997 72.9968 21.1019 72.9968 19.6575C72.9968 18.213 72.7146 17.1152 72.15 16.3641C71.6 15.613 70.9269 15.1219 70.1307 14.8908C69.3491 14.6597 68.4589 14.5441 67.4601 14.5441H65.3322V24.7708H67.4601Z" fill="#0A0D12"/>
<path d="M83.3508 15.5841C84.6101 15.5841 85.6885 15.8658 86.586 16.4291C87.4979 16.978 88.171 17.7652 88.6053 18.7908C89.054 19.8163 89.2422 21.0225 89.1698 22.4091H80.3978C80.4992 23.3913 80.8104 24.1352 81.3315 24.6408C81.8526 25.1463 82.5329 25.3991 83.3725 25.3991C84.1107 25.3991 84.7042 25.2186 85.1529 24.8575C85.6161 24.4963 85.9274 24.0413 86.0866 23.4925H89.1047C88.8441 24.8502 88.2 25.9047 87.1722 26.6558C86.159 27.3925 84.8924 27.7608 83.3725 27.7608C82.1276 27.7608 81.0492 27.508 80.1373 27.0025C79.2253 26.4969 78.5305 25.7891 78.0529 24.8791C77.5752 23.9547 77.3363 22.8858 77.3363 21.6725C77.3363 20.4736 77.5824 19.4119 78.0746 18.4875C78.5667 17.563 79.2688 16.848 80.1807 16.3425C81.0926 15.8369 82.1493 15.5841 83.3508 15.5841ZM86.1517 20.5025C86.0649 19.7225 85.7826 19.0941 85.3049 18.6175C84.8417 18.1408 84.1831 17.9025 83.3291 17.9025C82.5474 17.9025 81.9105 18.1191 81.4183 18.5525C80.9262 18.9858 80.6005 19.6358 80.4413 20.5025H86.1517Z" fill="#0A0D12"/>
<path d="M101.903 15.8441V27.0241C101.903 28.5408 101.418 29.7614 100.448 30.6858C99.4785 31.6247 98.06 32.0941 96.1927 32.0941C94.5715 32.0941 93.2832 31.733 92.3278 31.0108C91.3725 30.303 90.8079 29.3497 90.6342 28.1508H93.6089C93.9563 29.2197 94.8175 29.7541 96.1927 29.7541C97.148 29.7541 97.8429 29.5158 98.2771 29.0391C98.7114 28.5769 98.9285 27.8908 98.9285 26.9808V25.4208C98.1179 26.663 96.8947 27.2841 95.259 27.2841C94.2313 27.2841 93.3266 27.053 92.5449 26.5908C91.7778 26.1141 91.177 25.4352 90.7428 24.5541C90.323 23.673 90.1131 22.633 90.1131 21.4341C90.1131 20.2352 90.323 19.1952 90.7428 18.3141C91.177 17.433 91.7778 16.7613 92.5449 16.2991C93.3266 15.8225 94.2313 15.5841 95.259 15.5841C96.9092 15.5841 98.1324 16.2052 98.9285 17.4475V15.8441H101.903ZM96.0624 24.9441C97.0322 24.9441 97.7777 24.6191 98.2988 23.9691C98.8199 23.3191 99.0805 22.4741 99.0805 21.4341C99.0805 20.3941 98.8199 19.5491 98.2988 18.8991C97.7777 18.2491 97.0322 17.9241 96.0624 17.9241C95.0781 17.9241 94.3399 18.2563 93.8477 18.9208C93.37 19.5708 93.1312 20.4086 93.1312 21.4341C93.1312 22.4597 93.37 23.3047 93.8477 23.9691C94.3399 24.6191 95.0781 24.9441 96.0624 24.9441Z" fill="#0A0D12"/>
<path d="M110.021 15.7141C110.267 15.7141 110.513 15.7358 110.759 15.7791V18.7475C110.499 18.7041 110.224 18.6825 109.934 18.6825C109.022 18.6825 108.342 18.8991 107.893 19.3325C107.445 19.7513 107.162 20.2497 107.047 20.8275C106.931 21.3908 106.873 22.048 106.873 22.7991V27.5008H103.898V15.8441H106.829V17.8375C107.466 16.4219 108.53 15.7141 110.021 15.7141Z" fill="#0A0D12"/>
<path d="M117.416 15.5841C118.675 15.5841 119.754 15.8658 120.651 16.4291C121.563 16.978 122.236 17.7652 122.671 18.7908C123.119 19.8163 123.307 21.0225 123.235 22.4091H114.463C114.564 23.3913 114.876 24.1352 115.397 24.6408C115.918 25.1463 116.598 25.3991 117.438 25.3991C118.176 25.3991 118.769 25.2186 119.218 24.8575C119.681 24.4963 119.993 24.0413 120.152 23.4925H123.17C122.909 24.8502 122.265 25.9047 121.238 26.6558C120.224 27.3925 118.958 27.7608 117.438 27.7608C116.193 27.7608 115.115 27.508 114.203 27.0025C113.291 26.4969 112.596 25.7891 112.118 24.8791C111.64 23.9547 111.402 22.8858 111.402 21.6725C111.402 20.4736 111.648 19.4119 112.14 18.4875C112.632 17.563 113.334 16.848 114.246 16.3425C115.158 15.8369 116.215 15.5841 117.416 15.5841ZM120.217 20.5025C120.13 19.7225 119.848 19.0941 119.37 18.6175C118.907 18.1408 118.248 17.9025 117.394 17.9025C116.613 17.9025 115.976 18.1191 115.484 18.5525C114.991 18.9858 114.666 19.6358 114.507 20.5025H120.217Z" fill="#0A0D12"/>
<path d="M130.149 15.5841C131.409 15.5841 132.487 15.8658 133.385 16.4291C134.297 16.978 134.97 17.7652 135.404 18.7908C135.853 19.8163 136.041 21.0225 135.968 22.4091H127.196C127.298 23.3913 127.609 24.1352 128.13 24.6408C128.651 25.1463 129.332 25.3991 130.171 25.3991C130.909 25.3991 131.503 25.2186 131.952 24.8575C132.415 24.4963 132.726 24.0413 132.885 23.4925H135.903C135.643 24.8502 134.999 25.9047 133.971 26.6558C132.958 27.3925 131.691 27.7608 130.171 27.7608C128.926 27.7608 127.848 27.508 126.936 27.0025C126.024 26.4969 125.329 25.7891 124.851 24.8791C124.374 23.9547 124.135 22.8858 124.135 21.6725C124.135 20.4736 124.381 19.4119 124.873 18.4875C125.365 17.563 126.067 16.848 126.979 16.3425C127.891 15.8369 128.948 15.5841 130.149 15.5841ZM132.95 20.5025C132.864 19.7225 132.581 19.0941 132.104 18.6175C131.64 18.1408 130.982 17.9025 130.128 17.9025C129.346 17.9025 128.709 18.1191 128.217 18.5525C127.725 18.9858 127.399 19.6358 127.24 20.5025H132.95Z" fill="#0A0D12"/>
<path d="M142.466 27.7608C140.7 27.7608 139.332 27.3708 138.362 26.5908C137.392 25.8108 136.842 24.8286 136.712 23.6441H139.686C140.077 24.8863 141.025 25.5075 142.531 25.5075C143.226 25.5075 143.768 25.3847 144.159 25.1391C144.55 24.8791 144.745 24.5469 144.745 24.1425C144.745 23.7091 144.528 23.4058 144.094 23.2325C143.674 23.0447 142.951 22.8569 141.923 22.6691C140.967 22.5102 140.15 22.3225 139.469 22.1058C138.789 21.8747 138.203 21.5136 137.711 21.0225C137.218 20.5314 136.972 19.8741 136.972 19.0508C136.972 17.8808 137.464 17.0141 138.449 16.4508C139.433 15.873 140.635 15.5841 142.053 15.5841C143.616 15.5841 144.861 15.9236 145.788 16.6025C146.729 17.2813 147.286 18.1913 147.46 19.3325H144.485C144.311 18.8558 144.029 18.4875 143.638 18.2275C143.262 17.9675 142.712 17.8375 141.988 17.8375C141.366 17.8375 140.866 17.9386 140.49 18.1408C140.128 18.343 139.947 18.6175 139.947 18.9641C139.947 19.2675 140.092 19.5202 140.381 19.7225C140.685 19.9102 141.018 20.0475 141.38 20.1341C141.742 20.2208 142.364 20.3508 143.247 20.5241C144.811 20.813 145.947 21.1958 146.656 21.6725C147.365 22.1491 147.72 22.8713 147.72 23.8391C147.72 25.0236 147.264 25.9769 146.352 26.6991C145.44 27.4069 144.145 27.7608 142.466 27.7608Z" fill="#0A0D12"/>
<path d="M152.84 18.7908C152.189 18.7908 151.581 18.6463 151.016 18.3575C150.466 18.0541 150.025 17.628 149.692 17.0791C149.373 16.5302 149.214 15.8947 149.214 15.1725C149.214 14.4502 149.373 13.8147 149.692 13.2658C150.025 12.7169 150.466 12.298 151.016 12.0091C151.581 11.7058 152.189 11.5541 152.84 11.5541C153.491 11.5541 154.092 11.7058 154.642 12.0091C155.207 12.298 155.656 12.7241 155.988 13.2875C156.321 13.8363 156.488 14.4647 156.488 15.1725C156.488 15.8802 156.321 16.5158 155.988 17.0791C155.656 17.628 155.207 18.0541 154.642 18.3575C154.092 18.6463 153.491 18.7908 152.84 18.7908ZM152.84 16.9708C153.332 16.9708 153.723 16.8119 154.013 16.4941C154.317 16.1619 154.469 15.7213 154.469 15.1725C154.469 14.6236 154.317 14.1902 154.013 13.8725C153.723 13.5547 153.332 13.3958 152.84 13.3958C152.362 13.3958 151.972 13.5547 151.668 13.8725C151.378 14.1902 151.233 14.6236 151.233 15.1725C151.233 15.7213 151.378 16.1619 151.668 16.4941C151.972 16.8119 152.362 16.9708 152.84 16.9708Z" fill="#0A0D12"/>
<path fill-rule="evenodd" clip-rule="evenodd" d="M152.853 13.5591C151.956 13.5591 151.229 14.2848 151.229 15.1799C151.229 16.0751 151.956 16.8008 152.853 16.8008C153.75 16.8008 154.478 16.0751 154.478 15.1799C154.478 14.2848 153.75 13.5591 152.853 13.5591ZM152.853 18.8091C154.862 18.8091 156.49 17.1843 156.49 15.1799C156.49 13.1756 154.862 11.5508 152.853 11.5508C150.845 11.5508 149.216 13.1756 149.216 15.1799C149.216 17.1843 150.845 18.8091 152.853 18.8091Z" fill="#0A0D12"/>
</svg>
