<svg width="220" height="20" viewBox="0 0 220 20" fill="none" xmlns="http://www.w3.org/2000/svg">
<path d="M0 10H59" stroke="#FFA1B7" stroke-dasharray="5 5"/>
<path d="M77.812 5.965V7.174H75.407V15H73.925V7.174H71.507V5.965H77.812ZM83.0179 7.72C83.5639 7.72 84.0492 7.837 84.4739 8.071C84.9072 8.305 85.2452 8.65167 85.4879 9.111C85.7392 9.57033 85.8649 10.125 85.8649 10.775V15H84.3959V10.996C84.3959 10.3547 84.2356 9.865 83.9149 9.527C83.5942 9.18033 83.1566 9.007 82.6019 9.007C82.0472 9.007 81.6052 9.18033 81.2759 9.527C80.9552 9.865 80.7949 10.3547 80.7949 10.996V15H79.3129V5.38H80.7949V8.669C81.0462 8.36567 81.3626 8.13167 81.7439 7.967C82.1339 7.80233 82.5586 7.72 83.0179 7.72ZM94.3203 11.243C94.3203 11.5117 94.3029 11.7543 94.2683 11.971H88.7953C88.8386 12.543 89.0509 13.0023 89.4323 13.349C89.8136 13.6957 90.2816 13.869 90.8363 13.869C91.6336 13.869 92.1969 13.5353 92.5263 12.868H94.1253C93.9086 13.5267 93.5143 14.0683 92.9423 14.493C92.3789 14.909 91.6769 15.117 90.8363 15.117C90.1516 15.117 89.5363 14.9653 88.9903 14.662C88.4529 14.35 88.0283 13.9167 87.7163 13.362C87.4129 12.7987 87.2613 12.1487 87.2613 11.412C87.2613 10.6753 87.4086 10.0297 87.7033 9.475C88.0066 8.91167 88.4269 8.47833 88.9643 8.175C89.5103 7.87167 90.1343 7.72 90.8363 7.72C91.5123 7.72 92.1146 7.86733 92.6433 8.162C93.1719 8.45667 93.5836 8.87267 93.8783 9.41C94.1729 9.93867 94.3203 10.5497 94.3203 11.243ZM92.7733 10.775C92.7646 10.229 92.5696 9.79133 92.1883 9.462C91.8069 9.13267 91.3346 8.968 90.7713 8.968C90.2599 8.968 89.8223 9.13267 89.4583 9.462C89.0943 9.78267 88.8776 10.2203 88.8083 10.775H92.7733ZM100.625 5.965V11.724C100.625 12.4087 100.802 12.9243 101.158 13.271C101.522 13.6177 102.024 13.791 102.666 13.791C103.316 13.791 103.818 13.6177 104.174 13.271C104.538 12.9243 104.72 12.4087 104.72 11.724V5.965H106.202V11.698C106.202 12.4347 106.041 13.0587 105.721 13.57C105.4 14.0813 104.971 14.4627 104.434 14.714C103.896 14.9653 103.303 15.091 102.653 15.091C102.003 15.091 101.409 14.9653 100.872 14.714C100.343 14.4627 99.9227 14.0813 99.6107 13.57C99.2987 13.0587 99.1427 12.4347 99.1427 11.698V5.965H100.625ZM112.278 10.489L115.086 15H113.422L111.381 11.724L109.47 15H107.819L110.627 10.489L107.806 5.965H109.47L111.524 9.267L113.448 5.965H115.099L112.278 10.489ZM123.067 15.091C122.461 15.091 121.915 14.987 121.429 14.779C120.944 14.5623 120.563 14.259 120.285 13.869C120.008 13.479 119.869 13.024 119.869 12.504H121.455C121.49 12.894 121.642 13.2147 121.91 13.466C122.188 13.7173 122.573 13.843 123.067 13.843C123.579 13.843 123.977 13.7217 124.263 13.479C124.549 13.2277 124.692 12.907 124.692 12.517C124.692 12.2137 124.601 11.9667 124.419 11.776C124.246 11.5853 124.025 11.438 123.756 11.334C123.496 11.23 123.132 11.1173 122.664 10.996C122.075 10.84 121.594 10.684 121.221 10.528C120.857 10.3633 120.545 10.112 120.285 9.774C120.025 9.436 119.895 8.98533 119.895 8.422C119.895 7.902 120.025 7.447 120.285 7.057C120.545 6.667 120.909 6.368 121.377 6.16C121.845 5.952 122.387 5.848 123.002 5.848C123.878 5.848 124.593 6.069 125.147 6.511C125.711 6.94433 126.023 7.54233 126.083 8.305H124.445C124.419 7.97567 124.263 7.694 123.977 7.46C123.691 7.226 123.314 7.109 122.846 7.109C122.422 7.109 122.075 7.21733 121.806 7.434C121.538 7.65067 121.403 7.96267 121.403 8.37C121.403 8.64733 121.486 8.877 121.65 9.059C121.824 9.23233 122.04 9.371 122.3 9.475C122.56 9.579 122.916 9.69167 123.366 9.813C123.964 9.97767 124.45 10.1423 124.822 10.307C125.204 10.4717 125.524 10.7273 125.784 11.074C126.053 11.412 126.187 11.867 126.187 12.439C126.187 12.8983 126.062 13.3317 125.81 13.739C125.568 14.1463 125.208 14.4757 124.731 14.727C124.263 14.9697 123.709 15.091 123.067 15.091ZM129.665 9.046V13.011C129.665 13.2797 129.726 13.4747 129.847 13.596C129.977 13.7087 130.194 13.765 130.497 13.765H131.407V15H130.237C129.57 15 129.058 14.844 128.703 14.532C128.348 14.22 128.17 13.713 128.17 13.011V9.046H127.325V7.837H128.17V6.056H129.665V7.837H131.407V9.046H129.665ZM139.26 7.837V15H137.778V14.155C137.544 14.4497 137.236 14.6837 136.855 14.857C136.482 15.0217 136.084 15.104 135.659 15.104C135.096 15.104 134.589 14.987 134.138 14.753C133.696 14.519 133.345 14.1723 133.085 13.713C132.834 13.2537 132.708 12.699 132.708 12.049V7.837H134.177V11.828C134.177 12.4693 134.337 12.9633 134.658 13.31C134.979 13.648 135.416 13.817 135.971 13.817C136.526 13.817 136.963 13.648 137.284 13.31C137.613 12.9633 137.778 12.4693 137.778 11.828V7.837H139.26ZM144.218 9.046H142.892V15H141.397V9.046H140.552V7.837H141.397V7.33C141.397 6.50667 141.614 5.90867 142.047 5.536C142.489 5.15467 143.178 4.964 144.114 4.964V6.199C143.664 6.199 143.347 6.28567 143.165 6.459C142.983 6.62367 142.892 6.914 142.892 7.33V7.837H144.218V9.046ZM148.535 9.046H147.209V15H145.714V9.046H144.869V7.837H145.714V7.33C145.714 6.50667 145.93 5.90867 146.364 5.536C146.806 5.15467 147.495 4.964 148.431 4.964V6.199C147.98 6.199 147.664 6.28567 147.482 6.459C147.3 6.62367 147.209 6.914 147.209 7.33V7.837H148.535V9.046Z" fill="#293056"/>
<path d="M161 10H220" stroke="#FFA1B7" stroke-dasharray="5 5"/>
</svg>
