<svg width="28" height="28" viewBox="0 0 28 28" fill="none" xmlns="http://www.w3.org/2000/svg">
<path d="M7.39483 17.319C7.53157 16.1868 7.9959 15.5529 8.87093 14.9031C10.1229 14.0231 11.6869 14.5209 11.6869 14.5209V11.5676C12.0671 11.5579 12.4474 11.5804 12.8235 11.635V15.4355C12.8235 15.4355 11.26 14.9377 10.008 15.8182C9.13348 16.4676 8.6682 17.1019 8.53193 18.2341C8.52766 18.8489 8.64303 19.6525 9.17431 20.3473C9.04296 20.28 8.90907 20.2032 8.77265 20.1171C7.60231 19.3312 7.38913 18.1522 7.39483 17.319ZM19.281 6.10704C18.4197 5.16327 18.094 4.21039 17.9763 3.54102H19.0598C19.0598 3.54102 18.8437 5.29614 20.4181 7.02214L20.4399 7.04535C20.0156 6.77844 19.6265 6.46339 19.281 6.10704ZM24.5003 8.78273V12.5068C24.5003 12.5068 23.1177 12.4527 22.0946 12.1924C20.6659 11.8284 19.7477 11.27 19.7477 11.27C19.7477 11.27 19.1134 10.8719 19.0621 10.8441V18.5344C19.0621 18.9626 18.9449 20.032 18.5873 20.9239C18.1206 22.0906 17.4004 22.8565 17.2679 23.013C17.2679 23.013 16.392 24.0483 14.8465 24.7454C13.4535 25.3743 12.2305 25.3583 11.8649 25.3743C11.8649 25.3743 9.7507 25.458 7.84825 24.2216C7.43685 23.9491 7.05284 23.6405 6.70117 23.2997L6.71067 23.3065C8.6136 24.5429 10.7273 24.4592 10.7273 24.4592C11.0934 24.4432 12.3164 24.4592 13.709 23.8303C15.253 23.1332 16.1304 22.0979 16.1304 22.0979C16.2614 21.9414 16.985 21.1755 17.4498 20.0083C17.8063 19.1169 17.9246 18.0471 17.9246 17.6189V9.92945C17.9758 9.95766 18.6097 10.3558 18.6097 10.3558C18.6097 10.3558 19.5284 10.9146 20.957 11.2782C21.9806 11.5385 23.3627 11.5927 23.3627 11.5927V8.67442C23.8356 8.78045 24.2387 8.80912 24.5003 8.78273Z" fill="#F93A70"/>
<path d="M23.3633 8.67442V11.5917C23.3633 11.5917 21.9812 11.5376 20.9575 11.2773C19.5289 10.9133 18.6102 10.3549 18.6102 10.3549C18.6102 10.3549 17.9764 9.95675 17.9251 9.92854V17.6198C17.9251 18.048 17.8078 19.1178 17.4503 20.0092C16.9836 21.1764 16.2634 21.9423 16.1309 22.0988C16.1309 22.0988 15.2544 23.1341 13.7095 23.8312C12.317 24.4601 11.0939 24.4441 10.7279 24.4601C10.7279 24.4601 8.61414 24.5438 6.71121 23.3074L6.70171 23.3006C6.5008 23.1061 6.31169 22.9007 6.1353 22.6854C5.52805 21.945 5.15582 21.0695 5.06229 20.8197C5.06213 20.8186 5.06213 20.8176 5.06229 20.8165C4.91178 20.3824 4.59558 19.3399 4.63878 18.3301C4.71522 16.5486 5.34194 15.4551 5.50763 15.1812C5.94648 14.4341 6.51725 13.7658 7.19454 13.2058C7.79221 12.7226 8.46965 12.3381 9.19907 12.0682C9.9876 11.7512 10.832 11.5813 11.6869 11.5676V14.5209C11.6869 14.5209 10.123 14.0249 8.87147 14.9031C7.99644 15.5529 7.53211 16.1868 7.39537 17.319C7.38967 18.1522 7.60285 19.3312 8.77224 20.1175C8.90866 20.204 9.04255 20.2808 9.1739 20.3478C9.3782 20.6134 9.62685 20.8447 9.90982 21.0326C11.0521 21.7557 12.0093 21.8062 13.2333 21.3366C14.0494 21.0226 14.6638 20.315 14.9487 19.531C15.1277 19.0413 15.1253 18.5485 15.1253 18.0389V3.54102H17.974C18.0917 4.21039 18.4174 5.16327 19.2787 6.10704C19.6242 6.46339 20.0133 6.77844 20.4376 7.04535C20.563 7.17504 21.2039 7.8162 22.0267 8.20982C22.4522 8.41328 22.9006 8.56917 23.3633 8.67442Z" fill="#BB4DE8"/>
<path d="M3.92773 19.9121V19.9144L3.99842 20.106C3.9903 20.0837 3.96403 20.0159 3.92773 19.9121Z" fill="#FBF4FF"/>
<path d="M9.19872 12.0676C8.46929 12.3375 7.79185 12.722 7.19418 13.2052C6.51668 13.7664 5.94605 14.4362 5.50776 15.1847C5.34206 15.4577 4.71535 16.5521 4.63891 18.3336C4.5957 19.3433 4.91191 20.3859 5.06241 20.82C5.06225 20.821 5.06225 20.8221 5.06241 20.8232C5.15737 21.0707 5.52817 21.9462 6.13542 22.6889C6.31181 22.9041 6.50093 23.1096 6.70183 23.3041C6.05812 22.8774 5.48403 22.3615 4.99832 21.7733C4.39629 21.0393 4.02501 20.1729 3.92816 19.9172C3.92804 19.9153 3.92804 19.9135 3.92816 19.9117V19.9085C3.77718 19.4749 3.46002 18.4319 3.50418 17.4208C3.58062 15.6392 4.20733 14.5458 4.37303 14.2718C4.81119 13.5233 5.38183 12.8535 6.05945 12.2924C6.657 11.809 7.33447 11.4245 8.06399 11.1547C8.51902 10.9738 8.99305 10.8403 9.47789 10.7566C10.2086 10.6343 10.9548 10.6237 11.6889 10.7252V11.567C10.8332 11.5804 9.98799 11.7503 9.19872 12.0676Z" fill="#FBF4FF"/>
<path d="M17.9758 3.54056H15.1271V18.0389C15.1271 18.5485 15.1271 19.04 14.9505 19.531C14.6628 20.3146 14.0508 21.0222 13.2351 21.3362C12.0107 21.8076 11.0535 21.7553 9.91164 21.0322C9.62818 20.8451 9.37889 20.6145 9.17383 20.3496C10.1467 20.847 11.0174 20.8383 12.0961 20.4233C12.9113 20.1093 13.5243 19.4017 13.811 18.6177C13.9905 18.1281 13.9881 17.6352 13.9881 17.126V2.625H17.9217C17.9217 2.625 17.8775 2.9854 17.9758 3.54056ZM23.3627 7.86716V8.67397C22.9009 8.56855 22.4533 8.41266 22.0286 8.20936C21.2058 7.81574 20.5648 7.17458 20.4395 7.04489C20.5849 7.13641 20.7358 7.21968 20.8915 7.29426C21.8918 7.77297 22.877 7.91585 23.3627 7.86716Z" fill="#FBF4FF"/>
</svg>
