<svg width="28" height="28" viewBox="0 0 28 28" fill="none" xmlns="http://www.w3.org/2000/svg">
<path d="M14 5.25C16.7025 5.25 20.2894 5.40009 22.7988 5.52441C24.5316 5.61038 25.9236 6.967 26.0361 8.69824C26.1439 10.3571 26.25 12.3985 26.25 14C26.25 15.6015 26.1439 17.6429 26.0361 19.3018C25.9236 21.033 24.5316 22.3896 22.7988 22.4756C20.2894 22.5999 16.7025 22.75 14 22.75C11.2975 22.75 7.7106 22.5999 5.20117 22.4756C3.46841 22.3896 2.07643 21.033 1.96387 19.3018C1.85612 17.6429 1.75 15.6015 1.75 14C1.75 12.3985 1.85612 10.3571 1.96387 8.69824C2.07643 6.967 3.46841 5.61038 5.20117 5.52441C7.7106 5.40009 11.2975 5.25 14 5.25ZM11.375 17.5L18.375 14L11.375 10.5V17.5Z" fill="#BB4DE8"/>
</svg>
