<svg width="135" height="30" viewBox="0 0 135 30" fill="none" xmlns="http://www.w3.org/2000/svg">
<path d="M91.2676 0C99.5518 0 106.268 6.71573 106.268 15C106.268 23.2843 99.5518 30 91.2676 30C82.9833 30 76.2676 23.2843 76.2676 15C76.2676 6.71573 82.9833 0 91.2676 0ZM91.1455 7.07324C86.8352 7.07334 83.341 10.5129 83.3408 14.7559C83.3408 16.4934 83.928 18.0957 84.916 19.3828L83.707 22.6836L87.1367 21.3486C88.3085 22.0406 89.6797 22.4394 91.1455 22.4395C95.4559 22.4394 98.9501 18.9989 98.9502 14.7559C98.95 10.5129 95.4559 7.07329 91.1455 7.07324Z" fill="#4B095D"/>
<path d="M0 26.2498H2.13V5.33984H0V26.2498Z" fill="#4B095D"/>
<path d="M14.0348 11.2198C11.9048 11.2198 10.1048 12.1198 9.14484 13.6198V11.4598H7.07484V26.2498H9.14484V19.6198C9.14484 15.4498 10.7648 13.0498 13.5548 13.0498C15.7748 13.0498 16.7948 14.5198 16.7948 17.6998V26.2498H18.8648V17.1898C18.8648 13.2598 17.2148 11.2198 14.0348 11.2198Z" fill="#4B095D"/>
<path d="M27.2491 26.4898C30.0991 26.4898 32.5591 24.9898 32.5591 21.9898C32.5591 16.3798 24.0091 18.5998 24.0091 15.0898C24.0091 13.7998 25.1791 13.0498 27.0091 13.0498C28.8391 13.0498 30.0091 13.8898 30.7291 15.2098L32.3791 14.3098C31.3591 12.2098 29.4391 11.2198 27.0691 11.2198C24.0991 11.2198 21.9991 12.8098 21.9991 15.3898C21.9991 20.6398 30.5191 18.1798 30.5191 22.1098C30.5191 23.6698 29.2291 24.6598 27.2191 24.6598C24.9091 24.6598 23.4691 23.3698 22.9291 21.8398L21.1891 22.6198C21.9691 24.9898 24.3391 26.4898 27.2491 26.4898Z" fill="#4B095D"/>
<path d="M35.3737 8.39984H37.7737V5.33984H35.3737V8.39984ZM35.5537 26.2498H37.6237V11.4598H35.5537V26.2498Z" fill="#4B095D"/>
<path d="M52.173 5.33984V13.4398C51.063 11.9998 49.383 11.1898 47.283 11.1898C43.173 11.1898 40.713 14.2198 40.713 18.8398C40.713 23.2498 42.963 26.4898 47.283 26.4898C49.443 26.4898 51.093 25.6498 52.173 24.2698V26.2498H54.243V5.33984H52.173ZM47.583 24.6598C44.433 24.6598 42.783 22.1998 42.783 18.8398C42.783 15.3298 44.583 13.0198 47.583 13.0198C50.553 13.0198 52.353 15.3298 52.353 18.8398C52.353 22.1998 50.703 24.6598 47.583 24.6598Z" fill="#4B095D"/>
<path d="M70.2855 18.1198C70.2855 14.7598 68.3955 11.2198 63.8655 11.2198C59.5755 11.2198 57.2955 14.7598 57.2955 18.9298C57.2955 23.1298 59.6055 26.4898 64.1055 26.4898C66.3855 26.4898 68.0955 25.8298 69.8355 23.9998L68.3955 22.7398C67.0455 24.1798 65.7555 24.5998 64.1355 24.5998C61.2255 24.5998 59.4255 22.6498 59.3655 19.4098H70.1955C70.2555 19.0498 70.2855 18.5398 70.2855 18.1198ZM63.8655 12.9598C66.5955 12.9598 68.1255 14.7898 68.2755 17.1898C68.2755 17.4598 68.3055 17.6098 68.3055 17.6698H59.3655C59.5455 15.0598 61.1955 12.9598 63.8655 12.9598Z" fill="#4B095D"/>
<path d="M118.635 11.4598V17.0698C118.635 19.7098 118.635 23.3998 115.275 23.3998C112.545 23.3998 112.545 20.8198 112.545 19.7998V11.4598H108.945V20.6998C108.945 23.8498 110.505 26.5498 114.225 26.5498C115.965 26.5498 117.585 25.9498 118.635 24.5398V26.2498H122.235V11.4598H118.635Z" fill="#4B095D"/>
<path d="M134.933 14.3098V11.4598H131.243V5.33984L127.643 8.00984V11.4598H125.243V14.3098H127.643V22.1098C127.643 25.2598 129.743 26.5498 132.233 26.5498C133.133 26.5498 134.033 26.3998 134.933 26.0998V23.2198C134.273 23.4298 133.643 23.5498 133.133 23.5498C131.963 23.5498 131.243 23.0098 131.243 21.8398V14.3098H134.933Z" fill="#4B095D"/>
</svg>
