<svg width="83" height="40" viewBox="0 0 83 40" fill="none" xmlns="http://www.w3.org/2000/svg">
<path d="M10.0881 29.9861L7.92559 37.2818H6.57141L5.03878 31.7601L3.41168 37.2818L2.068 37.2923L0 29.9861H1.27019L2.78183 35.9276L4.41943 29.9861H5.76311L7.28524 35.8961L8.80737 29.9861H10.0881Z" fill="#4B095D"/>
<path d="M13.479 37.3763C12.9331 37.3763 12.4397 37.2538 11.9988 37.0089C11.558 36.7569 11.2115 36.407 10.9596 35.9591C10.7077 35.5042 10.5817 34.9794 10.5817 34.3845C10.5817 33.7966 10.7112 33.2753 10.9701 32.8204C11.229 32.3655 11.5824 32.0156 12.0303 31.7706C12.4782 31.5257 12.9786 31.4032 13.5315 31.4032C14.0843 31.4032 14.5847 31.5257 15.0326 31.7706C15.4805 32.0156 15.8339 32.3655 16.0929 32.8204C16.3518 33.2753 16.4813 33.7966 16.4813 34.3845C16.4813 34.9724 16.3483 35.4937 16.0824 35.9486C15.8164 36.4035 15.4525 36.7569 14.9906 37.0089C14.5357 37.2538 14.0319 37.3763 13.479 37.3763ZM13.479 36.337C13.7869 36.337 14.0738 36.2635 14.3398 36.1166C14.6127 35.9696 14.8332 35.7492 15.0011 35.4552C15.1691 35.1613 15.2531 34.8044 15.2531 34.3845C15.2531 33.9646 15.1726 33.6112 15.0116 33.3243C14.8507 33.0303 14.6372 32.8099 14.3713 32.6629C14.1053 32.5159 13.8184 32.4425 13.5105 32.4425C13.2026 32.4425 12.9156 32.5159 12.6497 32.6629C12.3908 32.8099 12.1843 33.0303 12.0303 33.3243C11.8764 33.6112 11.7994 33.9646 11.7994 34.3845C11.7994 35.0073 11.9569 35.4902 12.2718 35.8331C12.5937 36.1691 12.9961 36.337 13.479 36.337Z" fill="#4B095D"/>
<path d="M18.756 32.3375C18.931 32.0436 19.1619 31.8161 19.4489 31.6552C19.7428 31.4872 20.0892 31.4032 20.4881 31.4032V32.6419H20.1837C19.7148 32.6419 19.3579 32.7609 19.1129 32.9988C18.875 33.2368 18.756 33.6497 18.756 34.2375V37.2818H17.5593V31.4977H18.756V32.3375Z" fill="#4B095D"/>
<path d="M23.7716 34.395L26.438 37.2818H24.8213L22.6799 34.7939V37.2818H21.4831V29.5137H22.6799V34.0276L24.7794 31.4977H26.438L23.7716 34.395Z" fill="#4B095D"/>
<path d="M34.2111 35.7912H31.1563L30.6314 37.2818H29.3822L31.9961 29.9756H33.3818L35.9956 37.2818H34.7359L34.2111 35.7912ZM33.8752 34.8149L32.6889 31.4242L31.4922 34.8149H33.8752Z" fill="#4B095D"/>
<path d="M39.9455 31.4032C40.4004 31.4032 40.8063 31.4977 41.1632 31.6866C41.5271 31.8756 41.8105 32.1555 42.0135 32.5264C42.2164 32.8974 42.3179 33.3452 42.3179 33.8701V37.2818H41.1317V34.0486C41.1317 33.5307 41.0022 33.1353 40.7433 32.8624C40.4843 32.5824 40.1309 32.4425 39.683 32.4425C39.2351 32.4425 38.8782 32.5824 38.6123 32.8624C38.3534 33.1353 38.2239 33.5307 38.2239 34.0486V37.2818H37.0272V31.4977H38.2239V32.159C38.4198 31.9211 38.6683 31.7356 38.9692 31.6027C39.2771 31.4697 39.6026 31.4032 39.9455 31.4032Z" fill="#4B095D"/>
<path d="M48.9462 31.4977L45.398 40.0006H44.1593L45.335 37.1873L43.0571 31.4977H44.3903L46.0174 35.9066L47.7075 31.4977H48.9462Z" fill="#4B095D"/>
<path d="M57.5124 31.4977L55.7173 37.2818H54.4576L53.2924 33.0093L52.1272 37.2818H50.8675L49.062 31.4977H50.2797L51.4869 36.1481L52.7151 31.4977H53.9643L55.14 36.1271L56.3367 31.4977H57.5124Z" fill="#4B095D"/>
<path d="M61.2935 31.4032C61.7344 31.4032 62.1263 31.4977 62.4693 31.6866C62.8192 31.8756 63.0921 32.1555 63.2881 32.5264C63.491 32.8974 63.5925 33.3452 63.5925 33.8701V37.2818H62.4063V34.0486C62.4063 33.5307 62.2768 33.1353 62.0179 32.8624C61.7589 32.5824 61.4055 32.4425 60.9576 32.4425C60.5097 32.4425 60.1528 32.5824 59.8869 32.8624C59.6279 33.1353 59.4985 33.5307 59.4985 34.0486V37.2818H58.3018V29.5137H59.4985V32.1695C59.7014 31.9246 59.9569 31.7356 60.2648 31.6027C60.5797 31.4697 60.9226 31.4032 61.2935 31.4032Z" fill="#4B095D"/>
<path d="M70.3152 34.248C70.3152 34.465 70.3012 34.6609 70.2732 34.8359H65.8538C65.8888 35.2978 66.0602 35.6687 66.3682 35.9486C66.6761 36.2285 67.054 36.3685 67.5019 36.3685C68.1457 36.3685 68.6006 36.0991 68.8666 35.5602H70.1578C69.9828 36.0921 69.6644 36.5295 69.2025 36.8724C68.7476 37.2083 68.1807 37.3763 67.5019 37.3763C66.949 37.3763 66.4521 37.2538 66.0113 37.0089C65.5774 36.7569 65.2344 36.407 64.9825 35.9591C64.7376 35.5042 64.6151 34.9794 64.6151 34.3845C64.6151 33.7896 64.7341 33.2683 64.972 32.8204C65.2169 32.3655 65.5564 32.0156 65.9903 31.7706C66.4312 31.5257 66.935 31.4032 67.5019 31.4032C68.0478 31.4032 68.5341 31.5222 68.961 31.7601C69.3879 31.9981 69.7204 32.334 69.9583 32.7679C70.1962 33.1948 70.3152 33.6882 70.3152 34.248ZM69.066 33.8701C69.059 33.4292 68.9016 33.0758 68.5936 32.8099C68.2857 32.5439 67.9043 32.411 67.4494 32.411C67.0365 32.411 66.6831 32.5439 66.3892 32.8099C66.0952 33.0688 65.9203 33.4222 65.8643 33.8701H69.066Z" fill="#4B095D"/>
<path d="M72.5846 32.3375C72.7596 32.0436 72.9905 31.8161 73.2775 31.6552C73.5714 31.4872 73.9178 31.4032 74.3167 31.4032V32.6419H74.0123C73.5434 32.6419 73.1865 32.7609 72.9416 32.9988C72.7036 33.2368 72.5846 33.6497 72.5846 34.2375V37.2818H71.3879V31.4977H72.5846V32.3375Z" fill="#4B095D"/>
<path d="M80.613 34.248C80.613 34.465 80.599 34.6609 80.571 34.8359H76.1516C76.1866 35.2978 76.358 35.6687 76.6659 35.9486C76.9739 36.2285 77.3518 36.3685 77.7997 36.3685C78.4435 36.3685 78.8984 36.0991 79.1643 35.5602H80.4555C80.2806 36.0921 79.9621 36.5295 79.5003 36.8724C79.0454 37.2083 78.4785 37.3763 77.7997 37.3763C77.2468 37.3763 76.7499 37.2538 76.309 37.0089C75.8751 36.7569 75.5322 36.407 75.2803 35.9591C75.0353 35.5042 74.9129 34.9794 74.9129 34.3845C74.9129 33.7896 75.0318 33.2683 75.2698 32.8204C75.5147 32.3655 75.8541 32.0156 76.288 31.7706C76.7289 31.5257 77.2328 31.4032 77.7997 31.4032C78.3455 31.4032 78.8319 31.5222 79.2588 31.7601C79.6857 31.9981 80.0181 32.334 80.2561 32.7679C80.494 33.1948 80.613 33.6882 80.613 34.248ZM79.3638 33.8701C79.3568 33.4292 79.1993 33.0758 78.8914 32.8099C78.5835 32.5439 78.2021 32.411 77.7472 32.411C77.3343 32.411 76.9809 32.5439 76.6869 32.8099C76.393 33.0688 76.218 33.4222 76.1621 33.8701H79.3638Z" fill="#4B095D"/>
<path d="M82.1686 37.3553C81.9516 37.3553 81.7697 37.2818 81.6227 37.1348C81.4757 36.9879 81.4023 36.8059 81.4023 36.589C81.4023 36.372 81.4757 36.1901 81.6227 36.0431C81.7697 35.8961 81.9516 35.8226 82.1686 35.8226C82.3785 35.8226 82.557 35.8961 82.7039 36.0431C82.8509 36.1901 82.9244 36.372 82.9244 36.589C82.9244 36.8059 82.8509 36.9879 82.7039 37.1348C82.557 37.2818 82.3785 37.3553 82.1686 37.3553Z" fill="#4B095D"/>
<path d="M5.32671 24.7354H5.48857C10.727 24.7354 14.9501 20.5417 14.9501 15.2297L14.8765 0.573876L11.1537 0.559162L11.2273 15.2003C11.2273 18.3492 8.63751 21.0273 5.45914 21.0273H5.35614C4.01711 21.0273 2.76636 20.5711 1.88348 19.8207L0 23.102C1.48618 24.1321 3.4138 24.7354 5.32671 24.7354Z" fill="#4B095D"/>
<path d="M27.4594 24.8384C32.6243 24.8384 36.818 20.63 36.818 15.4504C36.818 10.2708 32.6243 6.06245 27.4594 6.06245C22.2651 6.06245 18.0567 10.2708 18.0567 15.4504C18.0567 20.63 22.2651 24.8384 27.4594 24.8384ZM27.4594 21.2774C24.2222 21.2774 21.603 18.6729 21.603 15.4504C21.603 12.2279 24.2222 9.60868 27.4594 9.60868C30.6672 9.60868 33.2717 12.2279 33.2717 15.4504C33.2717 18.6729 30.6672 21.2774 27.4594 21.2774Z" fill="#4B095D"/>
<path d="M49.4744 6.07716C46.9582 6.07716 44.854 7.13662 43.4708 9.06424V0H39.9246V24.2792H43.2501L43.4267 21.8366C44.8099 23.7642 46.8993 24.8531 49.4891 24.8531C54.7423 24.8531 58.0825 20.3504 58.0825 15.4798C58.0825 10.212 54.4038 6.07716 49.4744 6.07716ZM48.9153 21.2921C45.7516 21.2921 43.4708 18.8054 43.4708 15.4504C43.4708 11.9777 45.9282 9.6234 48.93 9.6234C52.0201 9.6234 54.5363 12.1396 54.5363 15.4357C54.5363 18.6288 52.1819 21.2921 48.9153 21.2921Z" fill="#4B095D"/>
<path d="M61.1891 24.2792H64.7354V0H61.1891V24.2792Z" fill="#4B095D"/>
<path d="M75.3465 24.4999C79.6432 24.4999 82.9393 21.2774 82.9245 16.4951L82.9098 6.62159H79.3636L79.3783 16.4804C79.3783 19.3939 77.6273 21.042 75.3318 21.042C73.1246 21.042 71.403 19.3939 71.403 16.4804L71.3882 6.62159H67.842V16.4951C67.842 21.2774 71.094 24.4999 75.3465 24.4999Z" fill="#4B095D"/>
</svg>
