<svg width="428" height="40" viewBox="0 0 428 40" fill="none" xmlns="http://www.w3.org/2000/svg">
<path fill-rule="evenodd" clip-rule="evenodd" d="M263.041 18.6211C259.838 18.6211 257.241 21.2454 257.241 24.4828C257.241 27.72 259.838 30.3444 263.041 30.3444H284.876C288.079 30.3444 290.675 27.72 290.675 24.4828C290.675 21.2454 288.079 18.6211 284.876 18.6211H263.041ZM267.476 24.4828C267.476 26.5774 265.796 28.2755 263.723 28.2755C261.651 28.2755 259.971 26.5774 259.971 24.4828C259.971 22.388 261.651 20.6899 263.723 20.6899C265.796 20.6899 267.476 22.388 267.476 24.4828ZM287.946 24.4828C287.946 26.5774 286.266 28.2755 284.194 28.2755C282.121 28.2755 280.441 26.5774 280.441 24.4828C280.441 22.388 282.121 20.6899 284.194 20.6899C286.266 20.6899 287.946 22.388 287.946 24.4828Z" fill="#4B095D"/>
<path d="M0 39.9999H5.45869V18.851L24.9053 28.2296L44.3519 18.851V39.9999H49.8106V9.65631L24.9053 21.9772L0 9.65625V39.9999Z" fill="#4B095D"/>
<path d="M160.69 15.1731H126.232V9.65625H160.69C166.908 9.65625 171.949 14.7506 171.949 21.0347C171.949 27.3189 166.908 32.4132 160.69 32.4132H131.691V39.9989H126.232V26.8964H160.69C163.893 26.8964 166.49 24.272 166.49 21.0347C166.49 17.7974 163.893 15.1731 160.69 15.1731Z" fill="#4B095D"/>
<path d="M69.599 18.6211C69.599 16.7169 71.1264 15.1731 73.0105 15.1731H108.492V9.65625H73.0105C68.1114 9.65625 64.1401 13.67 64.1401 18.6211C64.1401 23.5723 68.1114 27.586 73.0105 27.586H100.986C102.87 27.586 104.398 29.1297 104.398 31.034C104.398 32.9383 102.87 34.482 100.986 34.482H64.1401V39.9989H100.986C105.885 39.9989 109.857 35.9852 109.857 31.034C109.857 26.0828 105.885 22.0692 100.986 22.0692H73.0105C71.1264 22.0692 69.599 20.5254 69.599 18.6211Z" fill="#4B095D"/>
<path fill-rule="evenodd" clip-rule="evenodd" d="M266.11 3.44806C266.11 4.41256 265.718 5.28459 265.087 5.91039V9.65446H282.827V5.91039C282.196 5.28459 281.804 4.41256 281.804 3.44806C281.804 1.54374 283.332 0 285.216 0C287.1 0 288.628 1.54374 288.628 3.44806C288.628 4.41256 288.236 5.28459 287.604 5.91039V9.65446H289.31C295.716 9.65446 300.91 14.9032 300.91 21.3777V28.2738C300.91 34.7484 295.716 39.9971 289.31 39.9971H258.605C252.198 39.9971 247.005 34.7484 247.005 28.2738V21.3777C247.005 14.9032 252.198 9.65446 258.605 9.65446H260.31V5.91039C259.679 5.28459 259.287 4.41256 259.287 3.44806C259.287 1.54374 260.815 0 262.699 0C264.583 0 266.11 1.54374 266.11 3.44806ZM258.605 15.1713H289.31C292.701 15.1713 295.451 17.95 295.451 21.3777V28.2738C295.451 31.7015 292.701 34.4802 289.31 34.4802H258.605C255.213 34.4802 252.464 31.7015 252.464 28.2738V21.3777C252.464 17.95 255.213 15.1713 258.605 15.1713Z" fill="#4B095D"/>
<path d="M317.628 9.65625H331.958V15.1731H317.628V9.65625Z" fill="#4B095D"/>
<path d="M359.933 9.65625H336.052V39.9989H341.51V15.1731H359.933V9.65625Z" fill="#4B095D"/>
<path d="M186.278 9.65625H223.124C228.023 9.65625 231.994 13.67 231.994 18.6211C231.994 21.0299 231.054 23.2168 229.525 24.8276C231.054 26.4383 231.994 28.6252 231.994 31.034C231.994 35.9852 228.023 39.9989 223.124 39.9989H186.278V34.482H223.124C225.008 34.482 226.536 32.9383 226.536 31.034C226.536 29.1297 225.008 27.586 223.124 27.586H186.278V22.0692H223.124C225.008 22.0692 226.536 20.5254 226.536 18.6211C226.536 16.7168 225.008 15.1731 223.124 15.1731H186.278V9.65625Z" fill="#4B095D"/>
<path d="M419.637 4.14062H427.825V12.4158H422.367V15.1743H386.885C385.001 15.1743 383.474 16.718 383.474 18.6223C383.474 20.5266 385.001 22.0703 386.885 22.0703H414.861C419.76 22.0703 423.731 26.084 423.731 31.0352C423.731 35.9863 419.76 40.0001 414.861 40.0001H378.015V34.4832H414.861C416.745 34.4832 418.272 32.9395 418.272 31.0352C418.272 29.1309 416.745 27.5872 414.861 27.5872H386.885C381.986 27.5872 378.015 23.5735 378.015 18.6223C378.015 13.6712 381.986 9.65743 386.885 9.65743H419.637V4.14062Z" fill="#4B095D"/>
</svg>
