<svg width="129" height="40" viewBox="0 0 129 40" fill="none" xmlns="http://www.w3.org/2000/svg">
<path d="M35.205 32.2974C34.5807 32.2942 33.9744 32.0882 33.4773 31.7104C32.9803 31.3327 32.6195 30.8036 32.4492 30.203L27.8057 19.4004C27.6449 19.0593 27.5558 18.6888 27.5439 18.3119C27.5525 18.0668 27.6105 17.826 27.7146 17.604C27.8186 17.3819 27.9664 17.1832 28.1491 17.0197C28.3319 16.8563 28.5458 16.7315 28.7781 16.6528C29.0103 16.5741 29.2561 16.5432 29.5005 16.562C30.093 16.562 30.8784 16.7824 31.3607 18.119L35.1636 27.9433L39.063 18.0914C39.5729 16.7824 40.3307 16.562 40.9094 16.562C41.1483 16.5469 41.3878 16.581 41.613 16.6621C41.8382 16.7433 42.0443 16.8698 42.2187 17.0338C42.393 17.1978 42.5319 17.3959 42.6266 17.6157C42.7214 17.8356 42.77 18.0725 42.7696 18.3119C42.7602 18.6832 42.6758 19.0487 42.5215 19.3866L37.9607 30.203C37.7846 30.8002 37.4222 31.3256 36.9265 31.7023C36.4307 32.0791 35.8276 32.2876 35.205 32.2974Z" fill="#4B095D"/>
<path d="M53.9855 35.2739C52.8419 38.0297 51.4778 39.628 48.2122 39.628C46.6001 39.628 46.1178 38.6773 46.1178 37.9057C46.1091 37.5392 46.2323 37.1818 46.465 36.8986C46.6977 36.6153 47.0243 36.4251 47.3855 36.3624C47.5869 36.3401 47.7903 36.3401 47.9917 36.3624C49.0114 36.3624 49.9897 35.7286 50.7475 33.9925L51.5053 32.0496L45.7182 19.4007C45.5711 19.0459 45.4872 18.6682 45.4702 18.2846C45.4808 18.0475 45.5381 17.8148 45.6388 17.5998C45.7394 17.3849 45.8815 17.1919 46.0568 17.0319C46.2322 16.8719 46.4373 16.7481 46.6606 16.6675C46.8839 16.5869 47.1208 16.5511 47.3579 16.5622C47.7792 16.5639 48.1894 16.6977 48.5306 16.9449C48.8717 17.1922 49.1267 17.5403 49.2594 17.9401L53.393 27.8058L56.948 18.0366C57.4165 16.7414 58.1743 16.452 58.8081 16.452C59.0546 16.4221 59.3046 16.4458 59.541 16.5215C59.7774 16.5972 59.9946 16.7232 60.1778 16.8907C60.3611 17.0582 60.5059 17.2633 60.6024 17.492C60.699 17.7207 60.7449 17.9676 60.7372 18.2157C60.7328 18.5758 60.6579 18.9316 60.5167 19.2629L53.9855 35.2739Z" fill="#4B095D"/>
<path d="M66.5379 25.6154C66.6617 26.6686 67.1765 27.6368 67.9804 28.3284C68.7842 29.0199 69.8185 29.3844 70.8783 29.3495C72.1641 29.3847 73.4135 28.9205 74.3643 28.0543C74.7153 27.7134 75.1841 27.521 75.6733 27.5169C75.8744 27.5092 76.075 27.5431 76.2624 27.6165C76.4498 27.6899 76.62 27.8013 76.7623 27.9436C76.9046 28.0859 77.016 28.2561 77.0894 28.4435C77.1628 28.6309 77.1967 28.8315 77.189 29.0326C77.1827 29.2933 77.1233 29.55 77.0143 29.7869C76.9053 30.0239 76.7491 30.2361 76.5552 30.4105C75.8094 31.1254 74.9237 31.6781 73.9537 32.0338C72.9838 32.3895 71.9508 32.5405 70.9196 32.4773C66.221 32.4773 62.735 29.4597 62.735 24.5131C62.6806 23.4376 62.8508 22.3625 63.2347 21.3563C63.6185 20.3502 64.2077 19.435 64.9646 18.669C65.7216 17.9029 66.6297 17.3029 67.6312 16.9071C68.6328 16.5113 69.7057 16.3283 70.7818 16.3698C71.6902 16.3197 72.5994 16.45 73.4572 16.7532C74.3149 17.0563 75.1041 17.5264 75.7792 18.1361C76.4543 18.7459 77.002 19.4834 77.3905 20.3059C77.7791 21.1285 78.001 22.0198 78.0433 22.9286C78.0844 23.1931 78.1075 23.4601 78.1122 23.7277C78.1122 25.1056 77.3819 25.6292 76.1142 25.6292L66.5379 25.6154ZM74.3368 22.8597C74.3816 22.3736 74.3206 21.8836 74.1578 21.4234C73.995 20.9633 73.7344 20.5439 73.3938 20.1941C73.0533 19.8444 72.6409 19.5727 72.1853 19.3978C71.7296 19.2228 71.2413 19.1488 70.7543 19.1807C69.7182 19.1537 68.7099 19.5169 67.929 20.1983C67.1481 20.8797 66.6516 21.8295 66.5379 22.8597H74.3368Z" fill="#4B095D"/>
<path d="M117.726 15.3906C118.837 15.3906 119.738 14.4899 119.738 13.3789C119.738 12.2679 118.837 11.3672 117.726 11.3672C116.615 11.3672 115.715 12.2679 115.715 13.3789C115.715 14.4899 116.615 15.3906 117.726 15.3906Z" fill="#4B095D"/>
<path d="M91.1884 32.4636C90.2088 32.4963 89.2361 32.2871 88.3566 31.8545C87.477 31.4219 86.7175 30.7793 86.1453 29.9834V37.7822C86.1778 38.0512 86.1528 38.3239 86.0721 38.5825C85.9913 38.841 85.8567 39.0795 85.677 39.2822C85.4973 39.4849 85.2766 39.6471 85.0296 39.7583C84.7825 39.8694 84.5147 39.9268 84.2439 39.9268C83.973 39.9268 83.7052 39.8694 83.4582 39.7583C83.2111 39.6471 82.9905 39.4849 82.8108 39.2822C82.6311 39.0795 82.4964 38.841 82.4157 38.5825C82.3349 38.3239 82.31 38.0512 82.3424 37.7822V18.4919C82.3106 18.2342 82.3339 17.9728 82.4108 17.7248C82.4877 17.4769 82.6164 17.2481 82.7884 17.0536C82.9603 16.8592 83.1716 16.7034 83.4083 16.5968C83.645 16.4901 83.9016 16.435 84.1612 16.435C84.4208 16.435 84.6774 16.4901 84.9141 16.5968C85.1508 16.7034 85.3621 16.8592 85.534 17.0536C85.706 17.2481 85.8347 17.4769 85.9116 17.7248C85.9885 17.9728 86.0118 18.2342 85.98 18.4919V18.8777H86.0765C86.6652 18.0399 87.4569 17.3653 88.3775 16.9171C89.2981 16.4688 90.3174 16.2616 91.34 16.3148C95.6803 16.3148 98.7254 19.8009 98.7254 24.3065C98.7254 28.8122 95.8181 32.4636 91.1884 32.4636ZM90.4306 19.4564C89.1853 19.5276 88.0182 20.0869 87.1825 21.0129C86.3468 21.9389 85.9098 23.1569 85.9662 24.403C85.9366 25.0177 86.0287 25.6321 86.2373 26.2111C86.4459 26.7901 86.7669 27.3221 87.1817 27.7766C87.5966 28.2312 88.0971 28.5993 88.6547 28.8597C89.2122 29.1202 89.8157 29.268 90.4306 29.2945C91.0482 29.2725 91.6549 29.1251 92.2138 28.8615C92.7728 28.5978 93.2723 28.2233 93.6821 27.7607C94.0918 27.2981 94.4033 26.757 94.5976 26.1703C94.7919 25.5837 94.8649 24.9636 94.8122 24.3479C94.8651 23.7349 94.7918 23.1175 94.597 22.5339C94.4021 21.9503 94.0898 21.4128 93.6793 20.9545C93.2688 20.4962 92.7687 20.1268 92.21 19.8692C91.6513 19.6115 91.0457 19.4711 90.4306 19.4564Z" fill="#4B095D"/>
<path d="M108.853 32.3247C104.829 32.3247 103.934 29.8583 103.934 26.9372V19.8411H102.707C102.495 19.8613 102.281 19.8369 102.079 19.7696C101.877 19.7023 101.691 19.5934 101.533 19.4501C101.376 19.3068 101.25 19.132 101.164 18.9372C101.077 18.7423 101.033 18.5316 101.033 18.3185C101.033 18.1054 101.077 17.8947 101.164 17.6998C101.25 17.505 101.376 17.3303 101.533 17.1869C101.691 17.0436 101.877 16.9347 102.079 16.8674C102.281 16.8001 102.495 16.7757 102.707 16.7959H103.934V14.1642C103.902 13.899 103.926 13.63 104.005 13.375C104.085 13.12 104.218 12.8847 104.395 12.6848C104.572 12.4849 104.789 12.3248 105.033 12.2151C105.276 12.1055 105.541 12.0488 105.808 12.0488C106.075 12.0488 106.339 12.1055 106.582 12.2151C106.826 12.3248 107.044 12.4849 107.221 12.6848C107.398 12.8847 107.53 13.12 107.61 13.375C107.689 13.63 107.714 13.899 107.682 14.1642V16.7959H110.052C110.264 16.7757 110.478 16.8001 110.68 16.8674C110.882 16.9347 111.068 17.0436 111.225 17.1869C111.383 17.3303 111.509 17.505 111.595 17.6998C111.681 17.8947 111.726 18.1054 111.726 18.3185C111.726 18.5316 111.681 18.7423 111.595 18.9372C111.509 19.132 111.383 19.3068 111.225 19.4501C111.068 19.5934 110.882 19.7023 110.68 19.7696C110.478 19.8369 110.264 19.8613 110.052 19.8411H107.723V26.9096C107.723 28.3977 108.233 29.1969 109.183 29.1969C109.335 29.1969 109.555 29.1969 109.776 29.1969H110.231C110.596 29.1969 110.947 29.3421 111.205 29.6005C111.463 29.8589 111.609 30.2093 111.609 30.5748C111.6 30.8662 111.51 31.1495 111.349 31.3928C111.189 31.6362 110.964 31.83 110.699 31.9527C110.118 32.2095 109.488 32.3364 108.853 32.3247Z" fill="#4B095D"/>
<path d="M117.727 32.2976C117.455 32.3063 117.185 32.2556 116.935 32.1488C116.686 32.0421 116.462 31.882 116.281 31.6798C116.1 31.4776 115.965 31.2381 115.886 30.9783C115.808 30.7184 115.787 30.4444 115.825 30.1756V18.629C115.793 18.36 115.818 18.0873 115.898 17.8287C115.979 17.5702 116.114 17.3317 116.293 17.129C116.473 16.9263 116.694 16.7641 116.941 16.653C117.188 16.5418 117.456 16.4844 117.727 16.4844C117.997 16.4844 118.265 16.5418 118.512 16.653C118.759 16.7641 118.98 16.9263 119.16 17.129C119.339 17.3317 119.474 17.5702 119.555 17.8287C119.635 18.0873 119.66 18.36 119.628 18.629V30.1756C119.666 30.4444 119.645 30.7184 119.567 30.9783C119.488 31.2381 119.353 31.4776 119.172 31.6798C118.991 31.882 118.767 32.0421 118.518 32.1488C118.268 32.2556 117.998 32.3063 117.727 32.2976Z" fill="#4B095D"/>
<path d="M20.1722 11.0504L1.80503 0.165103C1.62761 0.0842639 1.43506 0.0419961 1.24009 0.041093C1.0779 0.0392705 0.916951 0.0696474 0.766573 0.130459C0.616196 0.191271 0.479375 0.281311 0.364037 0.395367C0.2487 0.509423 0.157137 0.645229 0.0946486 0.794918C0.0321606 0.944607 -1.0237e-05 1.10521 2.44352e-09 1.26741C0.00535321 1.49476 0.0668926 1.71724 0.179126 1.91502L22.4733 39.3108L20.1722 11.0504Z" fill="#4B095D"/>
<path d="M29.5004 14.3851C30.365 14.3934 31.2038 14.681 31.8916 15.2049C32.5794 15.7288 33.0795 16.4611 33.3171 17.2924L34.2954 19.8278L43.1965 1.91526C43.2949 1.72329 43.3468 1.51091 43.3481 1.29521C43.3481 0.951698 43.2117 0.622261 42.9688 0.379362C42.7259 0.136463 42.3964 0 42.0529 0H20.6819C20.3384 0 20.009 0.136463 19.7661 0.379362C19.5232 0.622261 19.3867 0.951698 19.3867 1.29521L20.1721 11.0506L27.0615 15.1016C27.779 14.6125 28.6324 14.3619 29.5004 14.3851Z" fill="#4B095D"/>
<path d="M25.8628 20.2268C25.5884 19.6252 25.4429 18.9728 25.4357 18.3116C25.4418 17.6961 25.5951 17.0911 25.8827 16.547C26.1704 16.0029 26.584 15.5355 27.0891 15.1838L20.1997 11.1328L22.5008 39.3657C22.6057 39.5558 22.7592 39.7146 22.9456 39.826C23.132 39.9374 23.3446 39.9972 23.5617 39.9995C23.7846 39.9993 24.0034 39.9391 24.1949 39.8251C24.3865 39.7112 24.5438 39.5477 24.6503 39.3519L29.7071 29.2106L25.8628 20.2268Z" fill="#4B095D"/>
<path d="M125.374 16.5625C126.105 16.5625 126.806 16.8528 127.322 17.3696C127.839 17.8865 128.129 18.5874 128.129 19.3183C128.129 20.0491 127.839 20.7501 127.322 21.2669C126.806 21.7837 126.105 22.074 125.374 22.074C124.643 22.074 123.942 21.7837 123.425 21.2669C122.908 20.7501 122.618 20.0491 122.618 19.3183C122.618 18.5874 122.908 17.8865 123.425 17.3696C123.942 16.8528 124.643 16.5625 125.374 16.5625ZM125.374 21.6744C125.837 21.6744 126.29 21.5371 126.675 21.2797C127.06 21.0223 127.36 20.6565 127.538 20.2284C127.715 19.8004 127.761 19.3294 127.671 18.8751C127.581 18.4207 127.358 18.0033 127.03 17.6757C126.702 17.3481 126.285 17.125 125.831 17.0347C125.376 16.9443 124.905 16.9907 124.477 17.168C124.049 17.3452 123.683 17.6455 123.426 18.0307C123.169 18.4159 123.031 18.8688 123.031 19.332C123.035 19.9509 123.283 20.5432 123.722 20.9795C124.161 21.4158 124.755 21.6607 125.374 21.6607V21.6744ZM124.258 18.0782C124.251 18.0331 124.254 17.9871 124.268 17.9437C124.282 17.9004 124.307 17.861 124.339 17.8287C124.371 17.7965 124.41 17.7723 124.454 17.7582C124.497 17.7441 124.543 17.7404 124.588 17.7475H125.36C125.939 17.7475 126.517 17.9955 126.517 18.6569C126.519 18.8619 126.446 19.0606 126.311 19.2154C126.177 19.3702 125.99 19.4705 125.787 19.4974L126.462 20.4895C126.481 20.5477 126.481 20.6104 126.462 20.6686C126.464 20.7059 126.458 20.7432 126.445 20.7783C126.432 20.8133 126.412 20.8454 126.387 20.8724C126.361 20.8995 126.33 20.921 126.295 20.9357C126.261 20.9504 126.224 20.958 126.187 20.958C126.128 20.9578 126.071 20.9407 126.022 20.909C125.974 20.8772 125.935 20.832 125.911 20.7788L125.153 19.5663H124.754V20.6962C124.758 20.7358 124.753 20.7758 124.74 20.8135C124.727 20.8512 124.706 20.8856 124.679 20.9144C124.651 20.9432 124.618 20.9657 124.581 20.9804C124.544 20.995 124.504 21.0015 124.464 20.9993C124.399 20.9829 124.341 20.943 124.303 20.8871C124.265 20.8312 124.249 20.7632 124.258 20.6962V18.0782ZM125.263 19.1116C125.58 19.1116 125.952 19.0289 125.952 18.6431C125.952 18.2573 125.622 18.216 125.332 18.216H124.823V19.1116H125.263Z" fill="#4B095D"/>
</svg>
